<svg width="18" height="18" viewBox="0 0 18 18" fill="none" xmlns="http://www.w3.org/2000/svg">
<path d="M14.8124 3.75019V11.2501C14.8124 11.5606 14.5604 11.8126 14.2499 11.8126C13.9394 11.8126 13.6874 11.5606 13.6874 11.2501V5.10845L4.89748 13.8983C4.78799 14.0078 4.64396 14.0633 4.49997 14.0633C4.35597 14.0633 4.21195 14.0086 4.10245 13.8983C3.8827 13.6786 3.8827 13.3223 4.10245 13.1026L12.8923 4.31269H6.74994C6.43944 4.31269 6.18745 4.06069 6.18745 3.75019C6.18745 3.4397 6.43944 3.1877 6.74994 3.1877H14.2499C14.3234 3.1877 14.3962 3.20278 14.4652 3.23128C14.6024 3.28828 14.7119 3.39778 14.7697 3.53578C14.7974 3.60403 14.8124 3.67669 14.8124 3.75019Z" fill="#FFC107"/>
</svg>
