<svg width="18" height="18" viewBox="0 0 18 18" fill="none" xmlns="http://www.w3.org/2000/svg">
<path d="M10.5 14.25C10.5 14.802 10.6342 15.3255 10.8727 15.789C10.9515 15.9428 10.8532 16.125 10.6807 16.125H8.25H5.25C3.5325 16.125 2.625 15.225 2.625 13.515C2.625 11.6025 3.705 9.375 6.75 9.375H8.25H9.75C11.2515 9.375 12.2767 9.91801 12.9262 10.695C13.0275 10.8165 12.9578 10.9958 12.8078 11.0453C11.463 11.4885 10.5 12.753 10.5 14.25ZM8.25677 7.875C9.91127 7.875 11.2568 6.5295 11.2568 4.875C11.2568 3.2205 9.91127 1.875 8.25677 1.875C6.60227 1.875 5.25677 3.2205 5.25677 4.875C5.25677 6.5295 6.60227 7.875 8.25677 7.875ZM15.75 13.6875H14.8125V12.75C14.8125 12.4395 14.5605 12.1875 14.25 12.1875C13.9395 12.1875 13.6875 12.4395 13.6875 12.75V13.6875H12.75C12.4395 13.6875 12.1875 13.9395 12.1875 14.25C12.1875 14.5605 12.4395 14.8125 12.75 14.8125H13.6875V15.75C13.6875 16.0605 13.9395 16.3125 14.25 16.3125C14.5605 16.3125 14.8125 16.0605 14.8125 15.75V14.8125H15.75C16.0605 14.8125 16.3125 14.5605 16.3125 14.25C16.3125 13.9395 16.0605 13.6875 15.75 13.6875Z" fill="white"/>
</svg>
