<svg width="25" height="25" viewBox="0 0 25 25" fill="none" xmlns="http://www.w3.org/2000/svg">
<path d="M5.60874 24.9862H0.347967V9.20386H5.60874V24.9862ZM6.13622 3.06859C6.13622 1.40291 4.81756 0.0564728 3.15187 0.000949972C1.45843 -0.0406921 0.0425921 1.29185 0.000949971 2.98529C-0.0406921 4.67874 1.29185 6.09457 2.98529 6.13622C4.7065 6.1501 6.10845 4.7898 6.13622 3.06859ZM24.9168 15.4502C24.9168 10.5364 21.7381 9.03728 19.0314 9.03728C17.1297 8.98175 15.3391 9.91177 14.2981 11.4942V9.21773H9.21773V25.0001H14.4785V16.8105C14.4785 16.7272 14.4785 16.6439 14.4785 16.5606C14.4785 16.5606 14.4785 16.5606 14.4785 16.5467C14.3675 14.8672 15.6445 13.4097 17.3241 13.2987C18.6982 13.2987 19.7393 14.187 19.7393 16.6856V25.0001H25.0001L24.9307 15.464L24.9168 15.4502Z" fill="#FFC107"/>
</svg>
