<svg width="24" height="24" viewBox="0 0 24 24" fill="none" xmlns="http://www.w3.org/2000/svg">
<path d="M7.52975 8.5301L4.05975 12.0001L7.52975 15.4701C7.82275 15.7631 7.82275 16.2381 7.52975 16.5311C7.38375 16.6771 7.19175 16.7511 6.99975 16.7511C6.80775 16.7511 6.61575 16.6781 6.46975 16.5311L2.46975 12.5311C2.17675 12.2381 2.17675 11.7631 2.46975 11.4701L6.46975 7.4701C6.76275 7.1771 7.23775 7.1771 7.53075 7.4701C7.82275 7.7621 7.82275 8.2381 7.52975 8.5301ZM21.5297 11.4701L17.5297 7.4701C17.2367 7.1771 16.7617 7.1771 16.4687 7.4701C16.1757 7.7631 16.1757 8.23811 16.4687 8.53111L19.9387 12.0011L16.4687 15.4711C16.1757 15.7641 16.1757 16.2391 16.4687 16.5321C16.6147 16.6781 16.8067 16.7521 16.9987 16.7521C17.1907 16.7521 17.3828 16.6791 17.5288 16.5321L21.5288 12.5321C21.8228 12.2381 21.8227 11.7621 21.5297 11.4701ZM15.2627 3.29811C14.8767 3.15111 14.4428 3.3491 14.2978 3.7371L8.29775 19.7371C8.15175 20.1251 8.34875 20.5571 8.73675 20.7031C8.82275 20.7361 8.91275 20.7511 8.99975 20.7511C9.30375 20.7511 9.58874 20.5651 9.70174 20.2641L15.7017 4.26411C15.8477 3.87511 15.6507 3.44311 15.2627 3.29811Z" fill="white"/>
</svg>
