<svg width="24" height="24" viewBox="0 0 24 24" fill="none" xmlns="http://www.w3.org/2000/svg">
<path fill-rule="evenodd" clip-rule="evenodd" d="M20.1221 9.88023L19.6812 9.43922C19.4002 9.15822 19.2421 8.77622 19.2421 8.37822V7.75722C19.2421 6.10122 17.9002 4.75923 16.2442 4.75923H15.6232C15.2252 4.75923 14.8442 4.60124 14.5622 4.32024L14.1212 3.87923C12.9502 2.70823 11.0522 2.70823 9.88118 3.87923L9.44014 4.32024C9.15914 4.60124 8.77723 4.75923 8.37923 4.75923H7.75826C6.10225 4.75923 4.76021 6.10122 4.76021 7.75722V8.37822C4.76021 8.77622 4.60224 9.15722 4.32124 9.43922L3.8802 9.88023C2.7092 11.0512 2.7092 12.9492 3.8802 14.1202L4.32124 14.5612C4.60224 14.8422 4.76021 15.2242 4.76021 15.6222V16.2432C4.76021 17.8992 6.10225 19.2412 7.75826 19.2412H8.37923C8.77723 19.2412 9.15814 19.3992 9.44014 19.6802L9.88118 20.1212C11.0522 21.2922 12.9502 21.2922 14.1212 20.1212L14.5622 19.6802C14.8432 19.3992 15.2252 19.2412 15.6232 19.2412H16.2442C17.9002 19.2412 19.2421 17.8992 19.2421 16.2432V15.6222C19.2421 15.2242 19.4002 14.8432 19.6812 14.5612L20.1221 14.1202C21.2931 12.9492 21.2931 11.0512 20.1221 9.88023ZM15.5302 10.5302L11.5302 14.5302C11.3842 14.6762 11.1922 14.7502 11.0002 14.7502C10.8082 14.7502 10.6162 14.6772 10.4702 14.5302L8.47017 12.5302C8.17717 12.2372 8.17717 11.7622 8.47017 11.4692C8.76317 11.1762 9.2382 11.1762 9.5312 11.4692L11.0012 12.9392L14.4711 9.46922C14.7641 9.17622 15.2392 9.17622 15.5322 9.46922C15.8232 9.76222 15.8232 10.2382 15.5302 10.5302Z" fill="white"/>
</svg>
