<svg width="24" height="24" viewBox="0 0 24 24" fill="none" xmlns="http://www.w3.org/2000/svg">
<path d="M21.9998 12C21.9998 12.552 21.5528 13 20.9998 13H5.41388L10.7069 18.293C11.0979 18.684 11.0979 19.3161 10.7069 19.7071C10.5119 19.9021 10.2558 20 9.99982 20C9.74382 20 9.48779 19.9021 9.29279 19.7071L2.29377 12.708C2.20077 12.615 2.12773 12.5051 2.07673 12.3821C1.97573 12.1381 1.97573 11.862 2.07673 11.618C2.12773 11.495 2.20077 11.385 2.29377 11.292L9.29279 4.29301C9.68379 3.90201 10.3159 3.90201 10.7069 4.29301C11.0979 4.68401 11.0979 5.31607 10.7069 5.70707L5.41388 11H20.9998C21.5528 11 21.9998 11.448 21.9998 12Z" fill="white"/>
</svg>
