<svg width="18" height="18" viewBox="0 0 18 18" fill="none" xmlns="http://www.w3.org/2000/svg">
<path d="M13.6875 5.25H12.1875V2.25C12.1875 1.9425 11.9325 1.6875 11.625 1.6875C11.3175 1.6875 11.0625 1.9425 11.0625 2.25V5.25H6.9375V2.25C6.9375 1.9425 6.6825 1.6875 6.375 1.6875C6.0675 1.6875 5.8125 1.9425 5.8125 2.25V5.25H4.3125C4.002 5.25 3.75 5.502 3.75 5.8125V8.50726C3.75 9.30301 4.06584 10.0657 4.62909 10.6282L7.17078 13.17C7.38153 13.3808 7.5 13.6673 7.5 13.9658V15.75H10.5V13.9658C10.5 13.6673 10.6185 13.3808 10.8292 13.17L13.3709 10.6282C13.9334 10.0657 14.25 9.30226 14.25 8.50726V5.8125C14.25 5.502 13.998 5.25 13.6875 5.25ZM10.5 8.8125H7.5C7.1895 8.8125 6.9375 8.5605 6.9375 8.25C6.9375 7.9395 7.1895 7.6875 7.5 7.6875H10.5C10.8105 7.6875 11.0625 7.9395 11.0625 8.25C11.0625 8.5605 10.8105 8.8125 10.5 8.8125Z" fill="white"/>
</svg>
