<svg width="18" height="18" viewBox="0 0 18 18" fill="none" xmlns="http://www.w3.org/2000/svg">
<path d="M12 2.25H6C4.5 2.25 3.75 3 3.75 4.5V13.5C3.75 15 4.5 15.75 6 15.75H12C13.5 15.75 14.25 15 14.25 13.5V4.5C14.25 3 13.5 2.25 12 2.25ZM9 14.25C8.586 14.25 8.25 13.914 8.25 13.5C8.25 13.086 8.586 12.75 9 12.75C9.414 12.75 9.75 13.086 9.75 13.5C9.75 13.914 9.414 14.25 9 14.25ZM10.125 5.0625H7.875C7.5645 5.0625 7.3125 4.8105 7.3125 4.5C7.3125 4.1895 7.5645 3.9375 7.875 3.9375H10.125C10.4355 3.9375 10.6875 4.1895 10.6875 4.5C10.6875 4.8105 10.4355 5.0625 10.125 5.0625Z" fill="white"/>
</svg>
