<svg width="18" height="18" viewBox="0 0 18 18" fill="none" xmlns="http://www.w3.org/2000/svg">
<path d="M5.12343 9.5625C5.23593 11.8725 6.01593 14.2275 7.37343 16.32C4.19343 15.615 1.77094 12.8925 1.52344 9.5625H5.12343ZM7.37343 1.67999C4.19343 2.38499 1.77094 5.1075 1.52344 8.4375H5.12343C5.23593 6.1275 6.01593 3.77249 7.37343 1.67999ZM9.15095 1.5H8.85093L8.62594 1.82249C7.20094 3.84749 6.36843 6.1725 6.24843 8.4375H11.7534C11.6334 6.1725 10.8009 3.84749 9.37594 1.82249L9.15095 1.5ZM6.24843 9.5625C6.36843 11.8275 7.20094 14.1525 8.62594 16.1775L8.85093 16.5H9.15095L9.37594 16.1775C10.8009 14.1525 11.6334 11.8275 11.7534 9.5625H6.24843ZM12.8784 9.5625C12.7659 11.8725 11.9859 14.2275 10.6284 16.32C13.8084 15.615 16.2309 12.8925 16.4784 9.5625H12.8784ZM16.4784 8.4375C16.2309 5.1075 13.8084 2.38499 10.6284 1.67999C11.9859 3.77249 12.7659 6.1275 12.8784 8.4375H16.4784Z" fill="white"/>
</svg>
