<svg width="30" height="30" viewBox="0 0 30 30" fill="none" xmlns="http://www.w3.org/2000/svg">
<path d="M15.0113 13.4375C12.0813 13.4375 9.69879 11.0538 9.69879 8.125C9.69879 5.19625 12.0813 2.8125 15.0113 2.8125C17.9413 2.8125 20.3238 5.19625 20.3238 8.125C20.3238 11.0538 17.9413 13.4375 15.0113 13.4375ZM15.0113 4.6875C13.115 4.6875 11.5738 6.22875 11.5738 8.125C11.5738 10.0212 13.115 11.5625 15.0113 11.5625C16.9075 11.5625 18.4488 10.0212 18.4488 8.125C18.4488 6.22875 16.9063 4.6875 15.0113 4.6875ZM19.9962 27.1875H10.0038C6.97881 27.1875 5.3125 25.5313 5.3125 22.5238C5.3125 19.1976 7.195 15.3125 12.5 15.3125H17.5C22.805 15.3125 24.6875 19.1963 24.6875 22.5238C24.6875 25.5313 23.0212 27.1875 19.9962 27.1875ZM12.5 17.1875C7.57125 17.1875 7.1875 21.2713 7.1875 22.5238C7.1875 24.4788 8.03006 25.3125 10.0038 25.3125H19.9962C21.9699 25.3125 22.8125 24.4788 22.8125 22.5238C22.8125 21.2726 22.4288 17.1875 17.5 17.1875H12.5Z" fill="white"/>
</svg>
