<svg width="24" height="24" viewBox="0 0 24 24" fill="none" xmlns="http://www.w3.org/2000/svg">
<path d="M21.7498 7V11.1541C21.7498 11.5681 21.4138 11.9041 20.9998 11.9041C20.5858 11.9041 20.2498 11.5681 20.2498 11.1541V8.81104L14.2368 14.824C13.5538 15.507 12.4448 15.507 11.7618 14.824L9.17577 12.238C9.07777 12.14 8.91978 12.14 8.82178 12.238L3.52877 17.531C3.38277 17.677 3.19077 17.751 2.99877 17.751C2.80677 17.751 2.61477 17.678 2.46877 17.531C2.17577 17.238 2.17577 16.763 2.46877 16.47L7.76177 11.177C8.44477 10.494 9.55377 10.494 10.2368 11.177L12.8228 13.7629C12.9208 13.8609 13.0788 13.8609 13.1768 13.7629L19.1898 7.75H16.8468C16.4328 7.75 16.0968 7.414 16.0968 7C16.0968 6.586 16.4328 6.25 16.8468 6.25H20.9998C21.0978 6.25 21.1948 6.27011 21.2868 6.30811C21.4698 6.38411 21.6158 6.53011 21.6918 6.71411C21.7298 6.80511 21.7498 6.902 21.7498 7Z" fill="white"/>
</svg>
