<svg width="18" height="18" viewBox="0 0 18 18" fill="none" xmlns="http://www.w3.org/2000/svg">
<path d="M13.4999 3.00002H12.3749V2.25003C12.3749 2.04303 12.2069 1.87503 11.9999 1.87503C11.7929 1.87503 11.6249 2.04303 11.6249 2.25003V3.00002H6.37493V2.25003C6.37493 2.04303 6.20693 1.87503 5.99993 1.87503C5.79293 1.87503 5.62494 2.04303 5.62494 2.25003V3.00002H4.49995C2.78247 3.00002 1.87498 3.90751 1.87498 5.62499V13.4999C1.87498 15.2174 2.78247 16.1249 4.49995 16.1249H13.4999C15.2173 16.1249 16.1248 15.2174 16.1248 13.4999V5.62499C16.1248 3.90751 15.2173 3.00002 13.4999 3.00002ZM4.49995 3.75001H5.62494V4.5C5.62494 4.707 5.79293 4.875 5.99993 4.875C6.20693 4.875 6.37493 4.707 6.37493 4.5V3.75001H11.6249V4.5C11.6249 4.707 11.7929 4.875 11.9999 4.875C12.2069 4.875 12.3749 4.707 12.3749 4.5V3.75001H13.4999C14.7966 3.75001 15.3748 4.32825 15.3748 5.62499V6.37498H2.62497V5.62499C2.62497 4.32825 3.20321 3.75001 4.49995 3.75001ZM13.4999 15.3749H4.49995C3.20321 15.3749 2.62497 14.7966 2.62497 13.4999V7.12497H15.3748V13.4999C15.3748 14.7966 14.7966 15.3749 13.4999 15.3749ZM6.56243 9.74995C6.56243 10.0612 6.31186 10.3124 6.00286 10.3124C5.69462 10.3124 5.43744 10.0612 5.43744 9.74995C5.43744 9.4387 5.6827 9.18745 5.99169 9.18745H6.00286C6.31186 9.18745 6.56243 9.4387 6.56243 9.74995ZM9.56239 9.74995C9.56239 10.0612 9.31183 10.3124 9.00283 10.3124C8.69458 10.3124 8.43741 10.0612 8.43741 9.74995C8.43741 9.4387 8.68266 9.18745 8.99166 9.18745H9.00283C9.31183 9.18745 9.56239 9.4387 9.56239 9.74995ZM12.5624 9.74995C12.5624 10.0612 12.3118 10.3124 12.0028 10.3124C11.6945 10.3124 11.4374 10.0612 11.4374 9.74995C11.4374 9.4387 11.6826 9.18745 11.9916 9.18745H12.0028C12.3118 9.18745 12.5624 9.4387 12.5624 9.74995ZM6.56243 12.7499C6.56243 13.0612 6.31186 13.3124 6.00286 13.3124C5.69462 13.3124 5.43744 13.0612 5.43744 12.7499C5.43744 12.4387 5.6827 12.1874 5.99169 12.1874H6.00286C6.31186 12.1874 6.56243 12.4387 6.56243 12.7499ZM9.56239 12.7499C9.56239 13.0612 9.31183 13.3124 9.00283 13.3124C8.69458 13.3124 8.43741 13.0612 8.43741 12.7499C8.43741 12.4387 8.68266 12.1874 8.99166 12.1874H9.00283C9.31183 12.1874 9.56239 12.4387 9.56239 12.7499ZM12.5624 12.7499C12.5624 13.0612 12.3118 13.3124 12.0028 13.3124C11.6945 13.3124 11.4374 13.0612 11.4374 12.7499C11.4374 12.4387 11.6826 12.1874 11.9916 12.1874H12.0028C12.3118 12.1874 12.5624 12.4387 12.5624 12.7499Z" fill="#FFC107"/>
</svg>
