<svg width="18" height="18" viewBox="0 0 18 18" fill="none" xmlns="http://www.w3.org/2000/svg">
<path fill-rule="evenodd" clip-rule="evenodd" d="M15.75 9C15.75 11.9925 13.8 14.52 11.1075 15.4125C10.785 15.465 10.6725 15.2625 10.6725 15.09C10.6725 14.865 10.68 14.1375 10.68 13.2375C10.68 12.6075 10.4625 12.195 10.2225 11.985C11.7225 11.82 13.305 11.25 13.305 8.65501C13.305 7.92001 13.0425 7.32 12.6075 6.8475C12.6825 6.675 12.915 5.98499 12.5475 5.05499C12.5475 5.05499 11.9775 4.87501 10.6875 5.75251C10.1475 5.60251 9.57 5.52749 9 5.51999C8.4225 5.52749 7.845 5.60251 7.3125 5.75251C6.0225 4.87501 5.45251 5.05499 5.45251 5.05499C5.08501 5.98499 5.31749 6.675 5.38499 6.8475C4.95749 7.32 4.69501 7.92001 4.69501 8.65501C4.69501 11.2425 6.26999 11.82 7.76999 11.9925C7.57499 12.1575 7.40248 12.4575 7.34248 12.8925C6.95248 13.065 5.97749 13.365 5.37749 12.33C5.37749 12.33 5.01748 11.685 4.34248 11.64C4.34248 11.64 3.68249 11.6325 4.29749 12.045C4.29749 12.045 4.73999 12.255 5.04749 13.035C5.04749 13.035 5.43751 14.2425 7.32001 13.83C7.32001 14.3925 7.32751 14.925 7.32751 15.09C7.32751 15.255 7.2075 15.465 6.8925 15.4125C4.2 14.5275 2.25 11.9925 2.25 9C2.25 5.2725 5.2725 2.25 9 2.25C12.7275 2.25 15.75 5.2725 15.75 9Z" fill="white"/>
</svg>
