<svg width="27" height="22" viewBox="0 0 27 22" fill="none" xmlns="http://www.w3.org/2000/svg">
<path d="M24.2311 5.36218C24.2446 5.5918 24.2446 5.83492 24.2446 6.07804C24.2446 13.2907 18.6798 21.5973 8.49574 21.5973C5.36217 21.5973 2.44472 20.7059 0 19.1526C0.445723 19.2066 0.877947 19.2201 1.33718 19.2201C3.93047 19.2201 6.30766 18.3557 8.21211 16.8969C5.7809 16.8429 3.74137 15.2761 3.03902 13.1151C3.37669 13.1691 3.72787 13.1961 4.07905 13.1961C4.5788 13.1961 5.07855 13.1286 5.53778 13.007C2.99851 12.4937 1.09404 10.3057 1.09404 7.65833V7.59079C1.83692 7.99599 2.68785 8.25262 3.5928 8.27963C2.10706 7.29364 1.12106 5.6323 1.12106 3.74136C1.12106 2.72835 1.3912 1.79639 1.87744 0.985988C4.6058 4.29514 8.69835 6.45622 13.2906 6.69934C13.2096 6.29414 13.1556 5.87543 13.1556 5.45672C13.1556 2.44471 15.6273 0 18.6934 0C20.2871 0 21.7324 0.661816 22.7319 1.71534C23.988 1.48573 25.1766 1.02652 26.2436 0.405207C25.8384 1.67484 24.9605 2.74186 23.8124 3.40369C24.92 3.28213 26.0005 2.98499 27 2.56628C26.2436 3.64682 25.2982 4.60579 24.2176 5.38918L24.2311 5.36218Z" fill="#FFC107"/>
</svg>
