<svg width="24" height="24" viewBox="0 0 24 24" fill="none" xmlns="http://www.w3.org/2000/svg">
<path d="M19.4957 4.99981V14.9998C19.4957 15.2758 19.2718 15.4998 18.9958 15.4998C18.7199 15.4998 18.4959 15.2758 18.4959 14.9998V6.20684L6.35254 18.3528C6.25457 18.4508 6.12659 18.4988 5.99862 18.4988C5.87064 18.4988 5.74267 18.4498 5.64469 18.3528C5.44973 18.1578 5.44973 17.8408 5.64469 17.6458L17.7881 5.49981H8.99797C8.72203 5.49981 8.49808 5.27581 8.49808 4.99981C8.49808 4.72382 8.72203 4.49982 8.99797 4.49982H18.9958C19.0608 4.49982 19.1257 4.51288 19.1867 4.53888C19.3097 4.58988 19.4066 4.68687 19.4576 4.80987C19.4826 4.86987 19.4957 4.93481 19.4957 4.99981Z" fill="white"/>
</svg>
