<svg width="18" height="18" viewBox="0 0 18 18" fill="none" xmlns="http://www.w3.org/2000/svg">
<path d="M9.5625 4.5V2.8125L12.9375 6.1875H11.25C10.065 6.1875 9.5625 5.685 9.5625 4.5ZM9.81006 14.565L10.4324 15.1575L10.3575 15.5775C10.3575 15.5775 10.32 15.75 10.1475 15.75C9.97502 15.75 4.5 15.75 4.5 15.75C3 15.75 2.25 15 2.25 13.5V4.5C2.25 3 3 2.25 4.5 2.25H8.4375V4.5C8.4375 6.315 9.435 7.3125 11.25 7.3125H13.5V10.2375C13.5 10.4775 13.2525 10.5 13.125 10.5C12.5775 10.5 12.0825 10.8 11.8425 11.2875L11.4675 12.0225L10.5901 12.15C10.0501 12.225 9.60757 12.5925 9.44257 13.1175C9.27757 13.635 9.42006 14.19 9.81006 14.565ZM6.5625 9C6.5625 9.3105 6.8145 9.5625 7.125 9.5625H10.5C10.8105 9.5625 11.0625 9.3105 11.0625 9C11.0625 8.6895 10.8105 8.4375 10.5 8.4375H7.125C6.8145 8.4375 6.5625 8.6895 6.5625 9ZM5.8125 12C5.8125 11.6895 5.5605 11.4375 5.25 11.4375C4.9395 11.4375 4.6875 11.6895 4.6875 12C4.6875 12.3105 4.9395 12.5625 5.25 12.5625C5.5605 12.5625 5.8125 12.3105 5.8125 12ZM5.8125 9C5.8125 8.6895 5.5605 8.4375 5.25 8.4375C4.9395 8.4375 4.6875 8.6895 4.6875 9C4.6875 9.3105 4.9395 9.5625 5.25 9.5625C5.5605 9.5625 5.8125 9.3105 5.8125 9ZM8.8125 12C8.8125 11.6895 8.5605 11.4375 8.25 11.4375H7.125C6.8145 11.4375 6.5625 11.6895 6.5625 12C6.5625 12.3105 6.8145 12.5625 7.125 12.5625H8.25C8.5605 12.5625 8.8125 12.3105 8.8125 12ZM15.6616 13.7505C15.8356 13.5848 15.7395 13.2953 15.4995 13.2615L14.1923 13.0755C14.0971 13.062 14.0144 13.0035 13.9724 12.9188L13.4062 11.7952C13.2915 11.5672 12.96 11.5672 12.8445 11.7952L12.2783 12.9188C12.2356 13.0035 12.1529 13.062 12.0584 13.0755L10.7512 13.2615C10.5112 13.2953 10.4159 13.5848 10.5892 13.7505L11.5342 14.652C11.6032 14.718 11.6347 14.8132 11.6182 14.9062L11.4022 16.1393C11.3579 16.3898 11.6266 16.581 11.8561 16.4632L12.9893 15.8805C13.0741 15.837 13.1759 15.837 13.2607 15.8805L14.3948 16.464C14.6243 16.5817 14.8921 16.3912 14.8478 16.1407L14.6318 14.9062C14.6153 14.8132 14.6468 14.718 14.7158 14.652L15.6616 13.7505Z" fill="white"/>
</svg>
