<svg width="22" height="18" viewBox="0 0 22 18" fill="none" xmlns="http://www.w3.org/2000/svg">
<path d="M21.8308 2.22968C21.657 2.01489 21.391 1.92285 21.1353 1.95354C21.2376 1.74898 21.3194 1.53418 21.391 1.31939C21.4933 1.01256 21.391 0.685271 21.1456 0.480713C20.9001 0.286383 20.5523 0.255702 20.2762 0.419348C19.6523 0.787553 18.9568 1.06371 18.2409 1.23758C17.3408 0.450035 16.1543 0 14.9372 0C12.2064 0 9.9767 2.19899 9.9767 4.89916C9.9767 4.92985 9.9767 4.96054 9.9767 4.99123C7.16402 4.62302 4.58658 3.20133 2.7967 1.03301C2.63305 0.838683 2.38758 0.736415 2.14211 0.756871C1.89664 0.777327 1.67163 0.920513 1.53867 1.1353C1.08864 1.89216 0.863623 2.73085 0.863623 3.61045C0.863623 4.38777 1.04772 5.1344 1.38524 5.80945C1.32387 5.8299 1.26251 5.86059 1.21137 5.89127C0.976126 6.02423 0.83294 6.31061 0.83294 6.57654C0.83294 7.99822 1.45684 9.30741 2.47963 10.2177C2.31599 10.4222 2.25462 10.6984 2.33644 10.9439C2.76602 12.2735 3.74789 13.327 4.98547 13.8895C3.70698 14.4623 2.25462 14.6873 0.853401 14.5236C0.495424 14.4827 0.157894 14.6975 0.0453868 15.035C-0.0773482 15.3725 0.0556122 15.751 0.36245 15.9351C2.3978 17.2238 4.77068 17.9091 7.21515 17.9091C15.1622 17.9091 19.908 11.5473 19.908 5.39011V5.22646C20.6546 4.64347 21.3092 3.94797 21.8615 3.16042C22.0559 2.88427 22.0456 2.50584 21.8308 2.23992V2.22968ZM18.6806 4.22413C18.4659 4.37755 18.3431 4.63324 18.3636 4.89916C18.3738 5.06281 18.3738 5.21623 18.3738 5.37988C18.3738 10.7802 14.2008 16.3647 7.21515 16.3647C6.06962 16.3647 4.94456 16.1908 3.87063 15.8635C5.16958 15.5669 6.38669 14.9941 7.46062 14.1657C7.71632 13.9713 7.8186 13.6236 7.71632 13.3167C7.61404 13.0099 7.32766 12.7951 7.00037 12.7849C5.9469 12.7644 4.97524 12.2735 4.36157 11.4962C4.62749 11.4655 4.89342 11.4246 5.14912 11.353C5.49687 11.2609 5.73211 10.9439 5.72188 10.5859C5.72188 10.2279 5.45595 9.92108 5.1082 9.84948C3.91153 9.61424 2.97057 8.77555 2.57168 7.67093C2.86829 7.7323 3.1649 7.77321 3.46151 7.78344C3.85017 7.8039 4.1161 7.57888 4.21838 7.25159C4.32066 6.92429 4.19792 6.56632 3.91154 6.37199C2.96034 5.74808 2.38759 4.70485 2.38759 3.56955C2.38759 3.34453 2.40804 3.11951 2.44895 2.90472C4.65818 5.08327 7.63449 6.40267 10.7949 6.56632C11.0302 6.56632 11.2654 6.4845 11.4188 6.3004C11.5722 6.1163 11.6336 5.88105 11.5825 5.64581C11.5211 5.36966 11.5006 5.10373 11.5006 4.85826C11.5006 3.00701 13.0348 1.49328 14.927 1.49328C15.8884 1.49328 16.7783 1.87171 17.4328 2.55698C17.6169 2.74108 17.8726 2.83313 18.1283 2.78199C18.1795 2.78199 18.2204 2.76154 18.2715 2.75131C18.0567 2.95587 17.9851 3.26271 18.0772 3.54909C18.1795 3.86615 18.4761 4.08094 18.8034 4.08094C18.8034 4.08094 18.7113 4.15253 18.6602 4.18321L18.6806 4.22413Z" fill="#505663"/>
</svg>
