<svg width="93" height="98" viewBox="0 0 93 98" fill="none" xmlns="http://www.w3.org/2000/svg">
<g filter="url(#filter0_f_727_717)">
<ellipse cx="48.4407" cy="51.6291" rx="20.1312" ry="22.2137" fill="#FFC107"/>
</g>
<g filter="url(#filter1_b_727_717)">
<rect width="80.5248" height="80.5248" rx="40" fill="#FFC107" fill-opacity="0.1"/>
<rect x="0.5" y="0.5" width="79.5248" height="79.5248" rx="39.5" stroke="#FFC107"/>
<path d="M50.6576 33.6018V24.4774C50.6576 23.1891 49.6022 22.1443 48.3008 22.1443C46.9994 22.1443 45.944 23.1891 45.944 24.4774V25.2743C42.4826 28.5991 37.3532 30.5869 31.8302 30.7285H23.8967C21.8216 30.7285 20.1312 32.402 20.1312 34.4562V39.3836C20.1312 41.3227 21.6338 42.9165 23.5479 43.0935L27.1479 56.3971C27.4699 57.588 28.5655 58.3805 29.7551 58.3805C29.9877 58.3805 30.2202 58.3495 30.4528 58.2875C31.1459 58.1016 31.7273 57.6588 32.0895 57.039C32.4518 56.4192 32.5457 55.6976 32.3623 55.0114L30.4483 47.9368L31.5395 47.6491C32.0806 47.503 32.5367 47.1577 32.8185 46.6751C33.1002 46.1925 33.1762 45.6259 33.0331 45.0902L32.5054 43.1422C37.7691 43.4256 42.6213 45.378 45.9396 48.5655V48.9772C45.9396 50.2655 46.995 51.3103 48.2963 51.3103C49.5977 51.3103 50.6531 50.2655 50.6531 48.9772V40.238C52.2944 40.0078 53.5644 38.6089 53.5644 36.9221C53.5689 35.2309 52.2988 33.832 50.6576 33.6018ZM21.1151 39.3836V34.4562C21.1151 32.9377 22.3628 31.7025 23.8967 31.7025H29.4555V42.1373H23.8967C22.3628 42.1373 21.1151 40.9021 21.1151 39.3836ZM30.2068 57.3489C29.29 57.5924 28.3464 57.0523 28.1004 56.1448L24.572 43.1068H28.1317L31.4232 55.2638C31.6647 56.1713 31.1191 57.1055 30.2068 57.3489ZM31.9733 46.1881C31.8212 46.4493 31.5797 46.6353 31.289 46.7105L30.1978 46.9983L29.1424 43.1068H31.4813L32.0851 45.3381C32.1656 45.6259 32.1253 45.9269 31.9733 46.1881ZM31.848 42.1373C31.8436 42.1373 31.8391 42.1373 31.8346 42.1373H30.4349V31.7025H31.8346C31.8391 31.7025 31.8436 31.7025 31.848 31.7025C37.2637 31.5608 42.3306 29.7147 45.944 26.5936V47.2418C42.3351 44.1251 37.2682 42.2745 31.848 42.1373ZM49.6782 48.9728C49.6782 49.7254 49.0611 50.3319 48.3053 50.3319C47.545 50.3319 46.9324 49.721 46.9324 48.9728V24.4774C46.9324 23.7248 47.5495 23.1183 48.3053 23.1183C49.0655 23.1183 49.6782 23.7292 49.6782 24.4774V48.9728ZM50.6576 39.2552V34.5846C51.7577 34.8059 52.5851 35.7666 52.5851 36.9177C52.5851 38.0687 51.7577 39.0339 50.6576 39.2552ZM54.2397 32.8757C54.0519 32.6809 54.0608 32.371 54.2621 32.1895L56.8961 29.7324C57.0929 29.5465 57.406 29.5554 57.5893 29.7546C57.7771 29.9494 57.7682 30.2593 57.567 30.4408L54.9329 32.8978C54.839 32.9864 54.7182 33.0307 54.5975 33.0307C54.4633 33.0262 54.3336 32.9775 54.2397 32.8757ZM57.2316 43.3813C57.4194 43.5761 57.4104 43.886 57.2092 44.0675C57.1153 44.1561 56.9945 44.2003 56.8738 44.2003C56.7441 44.2003 56.6144 44.1472 56.516 44.0498L54.034 41.4422C53.8462 41.2474 53.8551 40.9375 54.0564 40.756C54.2531 40.5701 54.5662 40.5789 54.7495 40.7782L57.2316 43.3813ZM60.3933 36.9885C60.3844 37.2541 60.1652 37.4622 59.9014 37.4622C59.8969 37.4622 59.8924 37.4622 59.888 37.4622L56.2701 37.356C55.9973 37.3471 55.7871 37.1258 55.796 36.8557C55.805 36.5857 56.0286 36.3731 56.3014 36.3864L59.9193 36.4927C60.1921 36.4927 60.4023 36.7185 60.3933 36.9885Z" fill="white"/>
</g>
<defs>
<filter id="filter0_f_727_717" x="4.15206" y="5.2579" width="88.5773" height="92.7421" filterUnits="userSpaceOnUse" color-interpolation-filters="sRGB">
<feFlood flood-opacity="0" result="BackgroundImageFix"/>
<feBlend mode="normal" in="SourceGraphic" in2="BackgroundImageFix" result="shape"/>
<feGaussianBlur stdDeviation="12" result="effect1_foregroundBlur_727_717"/>
</filter>
<filter id="filter1_b_727_717" x="-44.2886" y="-44.2886" width="169.102" height="169.102" filterUnits="userSpaceOnUse" color-interpolation-filters="sRGB">
<feFlood flood-opacity="0" result="BackgroundImageFix"/>
<feGaussianBlur in="BackgroundImageFix" stdDeviation="22"/>
<feComposite in2="SourceAlpha" operator="in" result="effect1_backgroundBlur_727_717"/>
<feBlend mode="normal" in="SourceGraphic" in2="effect1_backgroundBlur_727_717" result="shape"/>
</filter>
</defs>
</svg>
