<svg width="18" height="18" viewBox="0 0 18 18" fill="none" xmlns="http://www.w3.org/2000/svg">
<path d="M14.97 11.4075L11.4 14.985C10.3725 16.005 9.31504 16.005 8.29504 14.985L7.69199 14.3752C7.60424 14.2875 7.60424 14.145 7.69199 14.0572L14.049 7.70027C14.1368 7.61252 14.2793 7.61252 14.367 7.70027L14.9692 8.30251C16.0275 9.36001 15.99 10.38 14.97 11.4075ZM13.2735 6.924L6.91653 13.281C6.82878 13.3688 6.68623 13.3688 6.59848 13.281L2.89499 9.57751C2.48174 9.16426 2.25 8.60473 2.25 8.02048V3.71251C2.25 2.90476 2.90471 2.25 3.71246 2.25H8.01526C8.59876 2.25 9.15826 2.48174 9.57001 2.89499L13.2735 6.60599C13.3612 6.69374 13.3612 6.83625 13.2735 6.924ZM6 5.25C6 4.836 5.66546 4.5 5.25146 4.5H5.24396C4.83146 4.5 4.49927 4.836 4.49927 5.25C4.49927 5.664 4.83823 6 5.25073 6C5.66548 6 6 5.664 6 5.25Z" fill="white"/>
</svg>
