<svg width="40" height="40" viewBox="0 0 40 40" fill="none" xmlns="http://www.w3.org/2000/svg">
<path d="M30.5503 5.4165H12.7834C9.33837 5.4165 7.36696 7.21484 7.13029 10.4632C3.88196 10.6982 2.0835 12.6665 2.0835 16.1115V28.8882C2.0835 32.5615 4.10682 34.5832 7.77848 34.5832H25.5552C28.9985 34.5832 30.9684 32.7848 31.2034 29.5365C34.4517 29.2998 36.2502 27.3282 36.2502 23.8832V11.1165C36.2502 7.4415 34.2253 5.4165 30.5503 5.4165ZM28.7502 28.8882C28.7502 31.1565 27.8235 32.0832 25.5552 32.0832H7.77848C5.51015 32.0832 4.5835 31.1565 4.5835 28.8882V16.1115C4.5835 13.8432 5.51015 12.9165 7.77848 12.9165H25.5552C27.8235 12.9165 28.7502 13.8432 28.7502 16.1115V28.8882ZM33.7502 23.8832C33.7502 25.9048 33.0102 26.8565 31.2502 27.0432V16.1098C31.2502 12.4365 29.2268 10.4148 25.5552 10.4148H9.62175C9.81008 8.65316 10.7617 7.91483 12.7817 7.91483H30.5487C32.8203 7.91483 33.7485 8.84151 33.7485 11.1148V23.8832H33.7502ZM26.2335 17.1532C26.6401 17.7115 26.5167 18.4948 25.9584 18.8998L18.3168 24.4565C17.8235 24.8165 17.2435 24.9948 16.6668 24.9948C16.0902 24.9948 15.5102 24.8165 15.0168 24.4565L7.37524 18.8998C6.81691 18.4948 6.69351 17.7132 7.10018 17.1532C7.50518 16.5982 8.28534 16.4715 8.84701 16.8782L16.4886 22.4348C16.5953 22.5132 16.7383 22.5132 16.8467 22.4348L24.4887 16.8782C25.0487 16.4698 25.8285 16.5965 26.2335 17.1532Z" fill="white"/>
</svg>
