<svg width="18" height="18" viewBox="0 0 18 18" fill="none" xmlns="http://www.w3.org/2000/svg">
<path d="M12.4417 3.383L11.9445 4.21777C11.8905 4.30852 11.7923 4.36398 11.6865 4.36398H6.31274C6.20699 4.36398 6.10875 4.30852 6.05475 4.21777L5.55675 3.38153C5.25975 2.88203 5.619 2.24902 6.20025 2.24902H11.7968C12.3795 2.24977 12.7395 2.8835 12.4417 3.383ZM15 11.2498C15 12.7498 14.25 15.7498 9 15.7498C3.75 15.7498 3 12.7498 3 11.2498C3 8.75901 4.55324 6.78274 5.77874 5.57449C5.83574 5.51824 5.90999 5.48972 5.98949 5.48972H12.0105C12.09 5.48972 12.165 5.51824 12.2213 5.57449C13.4468 6.78274 15 8.75901 15 11.2498ZM10.875 11.7095C10.875 10.9378 10.3575 10.2657 9.61349 10.0745L8.66476 9.83527C8.54476 9.80377 8.44276 9.73629 8.36476 9.63504C8.29051 9.53979 8.25 9.41673 8.25 9.28998C8.25 8.98023 8.49375 8.72903 8.79375 8.72903H9.207C9.48375 8.72903 9.7155 8.94355 9.747 9.22855C9.78075 9.53755 10.0545 9.75802 10.368 9.72577C10.677 9.69202 10.899 9.41302 10.8652 9.10477C10.7842 8.37202 10.2488 7.79747 9.5625 7.64597V7.49976C9.5625 7.18926 9.3105 6.93726 9 6.93726C8.6895 6.93726 8.4375 7.18926 8.4375 7.49976V7.6445C7.68825 7.81025 7.125 8.48373 7.125 9.28998C7.125 9.66573 7.25024 10.0332 7.47299 10.3212C7.69874 10.6175 8.02201 10.8313 8.38651 10.925L9.33524 11.1642C9.57974 11.2272 9.75 11.4515 9.75 11.7095C9.75 11.8595 9.69226 12.0013 9.58651 12.1085C9.48376 12.2135 9.34875 12.2705 9.20625 12.2705H8.793C8.51625 12.2705 8.2845 12.056 8.253 11.771C8.2185 11.462 7.94475 11.24 7.632 11.2737C7.323 11.3075 7.101 11.5865 7.13475 11.8947C7.21575 12.6275 7.75125 13.202 8.4375 13.3535V13.4998C8.4375 13.8103 8.6895 14.0623 9 14.0623C9.3105 14.0623 9.5625 13.8103 9.5625 13.4998V13.355C9.873 13.2868 10.1588 13.1315 10.3883 12.8983C10.7025 12.5795 10.875 12.1573 10.875 11.7095Z" fill="white"/>
</svg>
