<svg width="18" height="18" viewBox="0 0 18 18" fill="none" xmlns="http://www.w3.org/2000/svg">
<g clip-path="url(#clip0_363_539)">
<path fill-rule="evenodd" clip-rule="evenodd" d="M0.992188 4.96517C1.36719 4.15776 1.89515 3.45188 2.51686 2.81368C3.92311 1.37291 5.62541 0.444626 7.63857 0.130364C10.456 -0.309604 12.9774 0.343095 15.1583 2.18032C15.2965 2.29636 15.331 2.36405 15.178 2.50909C14.4083 3.24882 13.6534 3.99821 12.8886 4.74277C12.8096 4.82013 12.7553 4.91199 12.6172 4.78629C10.6978 3.06509 7.56456 3.08443 5.52673 4.941C4.82607 5.5792 4.32771 6.3431 4.00206 7.2182C3.95271 7.18919 3.90337 7.16018 3.85896 7.12633C2.90666 6.41078 1.94942 5.68556 0.992188 4.96517Z" fill="#D7282A"/>
<path fill-rule="evenodd" clip-rule="evenodd" d="M3.98193 10.743C4.25825 11.4295 4.59871 12.0725 5.10693 12.6237C6.3997 14.021 7.99838 14.6253 9.91779 14.4319C10.8109 14.34 11.6201 14.0451 12.38 13.5907C12.454 13.6535 12.5231 13.7212 12.5971 13.7792C13.4852 14.4609 14.3734 15.1378 15.2615 15.8147C14.2796 16.7284 13.125 17.3328 11.8224 17.6567C8.75825 18.4206 5.92601 17.9371 3.4145 15.9936C2.37338 15.191 1.55924 14.1998 0.981934 13.025C1.98358 12.2659 2.98029 11.502 3.98193 10.743Z" fill="#45AC43"/>
<path fill-rule="evenodd" clip-rule="evenodd" d="M15.2667 15.8147C14.3785 15.1378 13.4904 14.4561 12.6022 13.7792C12.5233 13.7212 12.4542 13.6535 12.3851 13.5907C12.9871 13.141 13.4904 12.6092 13.821 11.9323C13.9542 11.6616 14.043 11.3811 14.1318 11.0959C14.191 10.8977 14.1713 10.8203 13.9246 10.8251C12.4443 10.8396 10.9641 10.83 9.48381 10.83C9.16802 10.83 9.16802 10.83 9.16802 10.5109C9.16802 9.52941 9.17295 8.54311 9.16309 7.56164C9.16309 7.37309 9.19763 7.30056 9.41473 7.30056C12.1433 7.31023 14.872 7.3054 17.6006 7.3054C17.7486 7.3054 17.8424 7.31507 17.867 7.48912C18.2075 9.82917 17.9361 12.0629 16.6828 14.1273C16.3029 14.7607 15.844 15.336 15.2667 15.8147Z" fill="#5D7FBE"/>
<path fill-rule="evenodd" clip-rule="evenodd" d="M3.98203 10.7429C2.98038 11.502 1.98367 12.2659 0.982027 13.025C0.49354 12.1354 0.21229 11.1781 0.0790666 10.1821C-0.147907 8.45608 0.103738 6.79774 0.848803 5.21676C0.888277 5.12973 0.942553 5.04754 0.986961 4.96535C1.9442 5.68574 2.90143 6.41096 3.85867 7.13135C3.90308 7.16519 3.95242 7.1942 4.00176 7.22321C3.60209 8.39323 3.62183 9.56809 3.98203 10.7429Z" fill="#F4C300"/>
</g>
<defs>
<clipPath id="clip0_363_539">
<rect width="18" height="18" fill="white"/>
</clipPath>
</defs>
</svg>
