<svg width="48" height="48" viewBox="0 0 48 48" fill="none" xmlns="http://www.w3.org/2000/svg">
<path d="M24 4C12.954 4 4 12.954 4 24C4 35.046 12.954 44 24 44C35.046 44 44 35.046 44 24C44 12.954 35.046 4 24 4ZM18 31.9C18 32.232 17.7319 32.5 17.3999 32.5H16.0801C15.2081 32.5 14.5 31.792 14.5 30.92V23.52C14.5 22.65 15.2101 21.9399 16.0801 21.9399H17.3999C17.7319 21.9399 18 22.208 18 22.54V31.9ZM33.238 24L31.1179 30.34C30.6979 31.62 30.2379 32.5 28.1179 32.5H20.5979C20.2659 32.5 19.998 32.232 19.998 31.9V21.376C19.998 21.312 20.0081 21.25 20.0281 21.188L22.198 14.58C22.458 13.9 23.0981 13.5 23.7781 13.5C24.0981 13.5 24.418 13.58 24.698 13.78C25.578 14.36 26.0979 15.36 26.0979 16.42V19.84H30.238C33.398 19.84 33.918 21.96 33.238 24Z" fill="#FFC107"/>
</svg>
