<svg width="48" height="48" viewBox="0 0 48 48" fill="none" xmlns="http://www.w3.org/2000/svg">
<path d="M24 4C12.954 4 4 12.954 4 24C4 35.046 12.954 44 24 44C35.046 44 44 35.046 44 24C44 12.954 35.046 4 24 4ZM28 26.624C28 26.688 27.99 26.75 27.97 26.812L25.8 33.42C25.54 34.1 24.9 34.5 24.22 34.5C23.9 34.5 23.58 34.42 23.3 34.22C22.42 33.64 21.8999 32.64 21.8999 31.58V28.16H17.76C14.6 28.16 14.08 26.04 14.76 24L16.8799 17.66C17.2999 16.38 17.7599 15.5 19.8799 15.5H27.3999C27.7319 15.5 28 15.768 28 16.1V26.624ZM33.5 24.48C33.5 25.35 32.7899 26.0601 31.9199 26.0601H30.6001C30.2681 26.0601 30 25.792 30 25.46V16.1C30 15.768 30.2681 15.5 30.6001 15.5H31.9199C32.7919 15.5 33.5 16.208 33.5 17.08V24.48Z" fill="#FFC107"/>
</svg>
