<svg width="32" height="32" viewBox="0 0 32 32" fill="none" xmlns="http://www.w3.org/2000/svg">
<path d="M27.9202 11.0532C27.8269 9.13316 27.3869 7.42651 25.9869 6.02651C24.5869 4.62651 22.8802 4.18652 20.9602 4.09318C18.9735 3.98652 13.0402 3.98652 11.0669 4.09318C9.14686 4.18652 7.45354 4.62651 6.04021 6.02651C4.62687 7.42651 4.20019 9.13316 4.10686 11.0532C4.00019 13.0398 4.00019 18.9732 4.10686 20.9598C4.20019 22.8798 4.64021 24.5865 6.04021 25.9865C7.45354 27.3865 9.14686 27.8265 11.0669 27.9198C13.0535 28.0265 18.9869 28.0265 20.9602 27.9198C22.8802 27.8265 24.5869 27.3865 25.9869 25.9865C27.3869 24.5865 27.8269 22.8798 27.9202 20.9598C28.0269 18.9732 28.0269 13.0398 27.9202 11.0665V11.0532ZM16.0002 22.3332C12.5069 22.3332 9.66687 19.4932 9.66687 15.9998C9.66687 12.5065 12.5069 9.66651 16.0002 9.66651C19.4935 9.66651 22.3335 12.5065 22.3335 15.9998C22.3335 19.4932 19.4935 22.3332 16.0002 22.3332ZM23.3602 9.99984C22.6269 9.99984 22.0269 9.39984 22.0269 8.66651C22.0269 7.93317 22.6135 7.33317 23.3602 7.33317C24.0935 7.33317 24.6935 7.93317 24.6935 8.66651C24.6935 9.39984 24.0935 9.99984 23.3602 9.99984ZM20.3335 15.9998C20.3335 18.3865 18.3869 20.3332 16.0002 20.3332C13.6135 20.3332 11.6669 18.3865 11.6669 15.9998C11.6669 13.6132 13.6135 11.6665 16.0002 11.6665C18.3869 11.6665 20.3335 13.6132 20.3335 15.9998Z" fill="#FFC107"/>
</svg>
