<svg width="24" height="24" viewBox="0 0 24 24" fill="none" xmlns="http://www.w3.org/2000/svg">
<g clip-path="url(#clip0_363_469)">
<path d="M16.3302 13.5C17.1629 12.8455 17.836 12.0103 18.2986 11.0575C18.7611 10.1047 19.001 9.05916 19.0002 8H21.0002C21.0012 9.41043 20.6702 10.8013 20.034 12.0601C19.3979 13.3189 18.4743 14.4103 17.3382 15.246L19.8662 19.624C20.1314 20.0834 20.2032 20.6293 20.066 21.1416C19.9287 21.6539 19.5935 22.0908 19.1342 22.356L15.6072 16.248C14.4698 16.7456 13.2416 17.0016 12.0002 17C10.7587 17.0016 9.5305 16.7456 8.39316 16.248L4.86616 22.356C4.40681 22.0908 4.07163 21.6539 3.93436 21.1416C3.79708 20.6293 3.86895 20.0834 4.13416 19.624L9.19716 10.854C8.69212 10.3574 8.32791 9.73574 8.14172 9.05239C7.95553 8.36905 7.95403 7.64852 8.13736 6.9644C8.32069 6.28028 8.6823 5.65707 9.18525 5.1584C9.68821 4.65973 10.3145 4.30347 11.0002 4.126V2H13.0002V4.126C13.6858 4.30347 14.3121 4.65973 14.8151 5.1584C15.318 5.65707 15.6796 6.28028 15.863 6.9644C16.0463 7.64852 16.0448 8.36905 15.8586 9.05239C15.6724 9.73574 15.3082 10.3574 14.8032 10.854L16.3302 13.5ZM14.6002 14.502L13.0722 11.855C12.3714 12.0495 11.6309 12.0495 10.9302 11.855L9.40216 14.502C10.2062 14.823 11.0822 15 12.0012 15C12.9192 15 13.7962 14.823 14.6002 14.502ZM12.0002 10C12.5306 10 13.0393 9.78929 13.4144 9.41421C13.7894 9.03914 14.0002 8.53043 14.0002 8C14.0002 7.46957 13.7894 6.96086 13.4144 6.58579C13.0393 6.21071 12.5306 6 12.0002 6C11.4697 6 10.961 6.21071 10.5859 6.58579C10.2109 6.96086 10.0002 7.46957 10.0002 8C10.0002 8.53043 10.2109 9.03914 10.5859 9.41421C10.961 9.78929 11.4697 10 12.0002 10Z" fill="white"/>
</g>
<defs>
<clipPath id="clip0_363_469">
<rect width="24" height="24" fill="white"/>
</clipPath>
</defs>
</svg>
