<svg width="24" height="24" viewBox="0 0 24 24" fill="none" xmlns="http://www.w3.org/2000/svg">
<g clip-path="url(#clip0_728_2682)">
<path d="M12.0016 5.84768C8.59659 5.84768 5.84859 8.59568 5.84859 12.0007C5.84859 15.4057 8.59659 18.1537 12.0016 18.1537C15.4066 18.1537 18.1546 15.4057 18.1546 12.0007C18.1546 8.59568 15.4066 5.84768 12.0016 5.84768ZM12.0016 15.9997C9.79959 15.9997 8.00259 14.2027 8.00259 12.0007C8.00259 9.79868 9.79959 8.00168 12.0016 8.00168C14.2036 8.00168 16.0006 9.79868 16.0006 12.0007C16.0006 14.2027 14.2036 15.9997 12.0016 15.9997ZM18.4066 4.16168C17.6116 4.16168 16.9696 4.80368 16.9696 5.59868C16.9696 6.39368 17.6116 7.03568 18.4066 7.03568C19.2016 7.03568 19.8436 6.39668 19.8436 5.59868C19.8438 5.4099 19.8068 5.22294 19.7347 5.04848C19.6625 4.87403 19.5567 4.71553 19.4232 4.58204C19.2897 4.44855 19.1312 4.34272 18.9568 4.27058C18.7823 4.19845 18.5954 4.16144 18.4066 4.16168ZM23.9956 12.0007C23.9956 10.3447 24.0106 8.70368 23.9176 7.05068C23.8246 5.13068 23.3866 3.42668 21.9826 2.02268C20.5756 0.615681 18.8746 0.180681 16.9546 0.0876813C15.2986 -0.00531865 13.6576 0.00968139 12.0046 0.00968139C10.3486 0.00968139 8.70759 -0.00531865 7.05459 0.0876813C5.13459 0.180681 3.43059 0.618681 2.02659 2.02268C0.619588 3.42968 0.184588 5.13068 0.0915876 7.05068C-0.0014124 8.70668 0.0135876 10.3477 0.0135876 12.0007C0.0135876 13.6537 -0.0014124 15.2977 0.0915876 16.9507C0.184588 18.8707 0.622588 20.5747 2.02659 21.9787C3.43359 23.3857 5.13459 23.8207 7.05459 23.9137C8.71059 24.0067 10.3516 23.9917 12.0046 23.9917C13.6606 23.9917 15.3016 24.0067 16.9546 23.9137C18.8746 23.8207 20.5786 23.3827 21.9826 21.9787C23.3896 20.5717 23.8246 18.8707 23.9176 16.9507C24.0136 15.2977 23.9956 13.6567 23.9956 12.0007ZM21.3556 19.0747C21.1366 19.6207 20.8726 20.0287 20.4496 20.4487C20.0266 20.8717 19.6216 21.1357 19.0756 21.3547C17.4976 21.9817 13.7506 21.8407 12.0016 21.8407C10.2526 21.8407 6.50259 21.9817 4.92459 21.3577C4.37859 21.1387 3.97059 20.8747 3.55059 20.4517C3.12759 20.0287 2.86359 19.6237 2.64459 19.0777C2.02059 17.4967 2.16159 13.7497 2.16159 12.0007C2.16159 10.2517 2.02059 6.50168 2.64459 4.92368C2.86359 4.37768 3.12759 3.96968 3.55059 3.54968C3.97359 3.12968 4.37859 2.86268 4.92459 2.64368C6.50259 2.01968 10.2526 2.16068 12.0016 2.16068C13.7506 2.16068 17.5006 2.01968 19.0786 2.64368C19.6246 2.86268 20.0326 3.12668 20.4526 3.54968C20.8756 3.97268 21.1396 4.37768 21.3586 4.92368C21.9826 6.50168 21.8416 10.2517 21.8416 12.0007C21.8416 13.7497 21.9826 17.4967 21.3556 19.0747Z" fill="#FFC107"/>
</g>
<defs>
<clipPath id="clip0_728_2682">
<rect width="24" height="24" fill="white"/>
</clipPath>
</defs>
</svg>
