<svg width="15" height="12" viewBox="0 0 15 12" fill="none" xmlns="http://www.w3.org/2000/svg">
<path d="M12.7029 0.945007C11.7279 0.502507 10.6854 0.18 9.6054 0C9.4704 0.2325 9.32038 0.547498 9.21538 0.794998C8.06038 0.629998 6.92039 0.629998 5.78039 0.794998C5.67539 0.547498 5.5179 0.2325 5.3904 0C4.3029 0.18 3.2604 0.502507 2.2929 0.945007C0.327896 3.81001 -0.204605 6.60749 0.0653946 9.36749C1.37039 10.305 2.6304 10.875 3.8679 11.25C4.1679 10.845 4.44539 10.41 4.67789 9.95249C4.22789 9.78749 3.8004 9.58499 3.3954 9.34499C3.5004 9.26999 3.6054 9.18751 3.7029 9.10501C6.1704 10.2225 8.8554 10.2225 11.2929 9.10501C11.3979 9.18751 11.4954 9.26999 11.6004 9.34499C11.1954 9.58499 10.7679 9.78749 10.3179 9.95249C10.5504 10.41 10.8279 10.845 11.1279 11.25C12.3654 10.875 13.6329 10.305 14.9304 9.36749C15.2604 6.17249 14.4129 3.39751 12.7179 0.945007H12.7029ZM5.00038 7.62751C4.25788 7.62751 3.65039 6.95251 3.65039 6.12751C3.65039 5.30251 4.24288 4.62751 5.00038 4.62751C5.75788 4.62751 6.3654 5.30251 6.3504 6.12751C6.3504 6.95251 5.75038 7.62751 5.00038 7.62751ZM9.9804 7.62751C9.2379 7.62751 8.63038 6.95251 8.63038 6.12751C8.63038 5.30251 9.2229 4.62751 9.9804 4.62751C10.7379 4.62751 11.3454 5.30251 11.3304 6.12751C11.3304 6.95251 10.7379 7.62751 9.9804 7.62751Z" fill="white"/>
</svg>
