<svg width="20" height="20" viewBox="0 0 20 20" fill="none" xmlns="http://www.w3.org/2000/svg">
<path d="M15.0002 12.0834C13.8752 12.0834 12.9085 12.73 12.4218 13.6659L7.61674 11.2634C7.80257 10.88 7.91683 10.455 7.91683 10C7.91683 9.54504 7.80341 9.12088 7.61674 8.73671L12.4218 6.33422C12.9085 7.27005 13.8752 7.91671 15.0002 7.91671C16.6085 7.91671 17.9168 6.60837 17.9168 5.00004C17.9168 3.39171 16.6085 2.08337 15.0002 2.08337C13.3918 2.08337 12.0835 3.39171 12.0835 5.00004C12.0835 5.18671 12.1051 5.36755 12.1384 5.54422L7.14596 8.04086C6.61262 7.4567 5.85183 7.08337 5.00016 7.08337C3.39183 7.08337 2.0835 8.39171 2.0835 10C2.0835 11.6084 3.39183 12.9167 5.00016 12.9167C5.85183 12.9167 6.61179 12.5434 7.14596 11.9592L12.1384 14.4559C12.1051 14.6325 12.0835 14.8134 12.0835 15C12.0835 16.6084 13.3918 17.9167 15.0002 17.9167C16.6085 17.9167 17.9168 16.6084 17.9168 15C17.9168 13.3917 16.6085 12.0834 15.0002 12.0834ZM15.0002 2.91671C16.1493 2.91671 17.0835 3.85171 17.0835 5.00004C17.0835 6.14837 16.1493 7.08337 15.0002 7.08337C13.851 7.08337 12.9168 6.14837 12.9168 5.00004C12.9168 3.85171 13.851 2.91671 15.0002 2.91671ZM5.00016 12.0834C3.851 12.0834 2.91683 11.1484 2.91683 10C2.91683 8.85171 3.851 7.91671 5.00016 7.91671C6.14933 7.91671 7.0835 8.85171 7.0835 10C7.0835 11.1484 6.14933 12.0834 5.00016 12.0834ZM15.0002 17.0834C13.851 17.0834 12.9168 16.1484 12.9168 15C12.9168 13.8517 13.851 12.9167 15.0002 12.9167C16.1493 12.9167 17.0835 13.8517 17.0835 15C17.0835 16.1484 16.1493 17.0834 15.0002 17.0834Z" fill="#B09832"/>
</svg>
