<svg width="40" height="40" viewBox="0 0 40 40" fill="none" xmlns="http://www.w3.org/2000/svg">
<path d="M30 34.583H10C5.97 34.583 3.75 32.363 3.75 28.333V13.333C3.75 9.30301 5.97 7.08301 10 7.08301H30C34.03 7.08301 36.25 9.30301 36.25 13.333V28.333C36.25 32.363 34.03 34.583 30 34.583ZM10 9.58301C7.37167 9.58301 6.25 10.7047 6.25 13.333V28.333C6.25 30.9613 7.37167 32.083 10 32.083H30C32.6283 32.083 33.75 30.9613 33.75 28.333V13.333C33.75 10.7047 32.6283 9.58301 30 9.58301H10ZM21.7151 21.9647L29.9015 16.0113C30.4599 15.6063 30.5833 14.823 30.1766 14.2647C29.7716 13.708 28.9918 13.5813 28.4302 13.9897L20.2433 19.943C20.0967 20.0497 19.9017 20.0497 19.755 19.943L11.5682 13.9897C11.0049 13.5813 10.2268 13.7097 9.82178 14.2647C9.41511 14.823 9.53851 15.6047 10.0968 16.0113L18.2833 21.9663C18.7966 22.3397 19.3984 22.5247 19.9984 22.5247C20.5984 22.5247 21.2034 22.338 21.7151 21.9647Z" fill="white"/>
</svg>
