<svg width="20" height="20" viewBox="0 0 20 20" fill="none" xmlns="http://www.w3.org/2000/svg">
<path d="M15.2949 14.705C15.4574 14.8675 15.4574 15.1317 15.2949 15.2942C15.2132 15.3759 15.1066 15.4159 14.9999 15.4159C14.8932 15.4159 14.7865 15.3751 14.7049 15.2942L9.99989 10.5892L5.29489 15.2942C5.21322 15.3759 5.10655 15.4159 4.99989 15.4159C4.89322 15.4159 4.78655 15.3751 4.70488 15.2942C4.54238 15.1317 4.54238 14.8675 4.70488 14.705L9.40989 10L4.70488 5.29505C4.54238 5.13255 4.54238 4.86836 4.70488 4.70586C4.86738 4.54336 5.13155 4.54336 5.29405 4.70586L9.99905 9.41091L14.7041 4.70586C14.8666 4.54336 15.1307 4.54336 15.2932 4.70586C15.4557 4.86836 15.4557 5.13255 15.2932 5.29505L10.5891 10L15.2949 14.705Z" fill="white"/>
</svg>
