<svg width="118" height="22" viewBox="0 0 118 22" fill="none" xmlns="http://www.w3.org/2000/svg">
<g filter="url(#filter0_b_363_1211)">
<rect x="32" width="22" height="22" rx="11" fill="black" fill-opacity="0.2"/>
<rect x="32.5" y="0.5" width="21" height="21" rx="10.5" stroke="#2D384A"/>
</g>
<g clip-path="url(#clip0_363_1211)">
<g filter="url(#filter1_i_363_1211)">
<path d="M44.6152 14.9564C44.6152 15.6333 44.0665 16.182 43.3897 16.182C42.7128 16.182 42.164 15.6333 42.164 14.9564V13.5461C42.164 13.4258 42.1724 13.3058 42.191 13.186C42.1978 13.1422 42.2045 13.0985 42.2088 13.0548C42.2222 12.9167 42.2058 12.7364 42.112 12.6153L42.3361 12.3991C41.2124 11.825 40.4424 10.651 40.4424 9.29604C40.4424 8.92895 40.4989 8.57513 40.6037 8.24294L40.975 5.81812H43.9943V5.81914C45.8589 5.85929 47.3548 7.07518 47.3548 9.29604C47.3548 10.6015 46.7297 11.6525 45.784 12.2451L45.7864 12.247C45.7219 12.2917 45.646 12.3373 45.5645 12.3861L45.5639 12.3865C45.2957 12.5473 44.9679 12.7438 44.795 13.0651C44.645 13.3437 44.6159 13.7959 44.6159 14.0056L44.6152 14.0052V14.9564Z" fill="url(#paint0_linear_363_1211)"/>
</g>
<path d="M44.6152 14.9564C44.6152 15.6333 44.0665 16.182 43.3897 16.182C42.7128 16.182 42.164 15.6333 42.164 14.9564V13.5461C42.164 13.4258 42.1724 13.3058 42.191 13.186C42.1978 13.1422 42.2045 13.0985 42.2088 13.0548C42.2222 12.9167 42.2058 12.7364 42.112 12.6153L42.3361 12.3991C41.2124 11.825 40.4424 10.651 40.4424 9.29604C40.4424 8.92895 40.4989 8.57513 40.6037 8.24294L40.975 5.81812H43.9943V5.81914C45.8589 5.85929 47.3548 7.07518 47.3548 9.29604C47.3548 10.6015 46.7297 11.6525 45.784 12.2451L45.7864 12.247C45.7219 12.2917 45.646 12.3373 45.5645 12.3861L45.5639 12.3865C45.2957 12.5473 44.9679 12.7438 44.795 13.0651C44.645 13.3437 44.6159 13.7959 44.6159 14.0056L44.6152 14.0052V14.9564Z" fill="url(#paint1_radial_363_1211)"/>
<path d="M44.6152 14.9564C44.6152 15.6333 44.0665 16.182 43.3897 16.182C42.7128 16.182 42.164 15.6333 42.164 14.9564V13.5461C42.164 13.4258 42.1724 13.3058 42.191 13.186C42.1978 13.1422 42.2045 13.0985 42.2088 13.0548C42.2222 12.9167 42.2058 12.7364 42.112 12.6153L42.3361 12.3991C41.2124 11.825 40.4424 10.651 40.4424 9.29604C40.4424 8.92895 40.4989 8.57513 40.6037 8.24294L40.975 5.81812H43.9943V5.81914C45.8589 5.85929 47.3548 7.07518 47.3548 9.29604C47.3548 10.6015 46.7297 11.6525 45.784 12.2451L45.7864 12.247C45.7219 12.2917 45.646 12.3373 45.5645 12.3861L45.5639 12.3865C45.2957 12.5473 44.9679 12.7438 44.795 13.0651C44.645 13.3437 44.6159 13.7959 44.6159 14.0056L44.6152 14.0052V14.9564Z" fill="url(#paint2_radial_363_1211)"/>
<path d="M44.6152 14.9564C44.6152 15.6333 44.0665 16.182 43.3897 16.182C42.7128 16.182 42.164 15.6333 42.164 14.9564V13.5461C42.164 13.4258 42.1724 13.3058 42.191 13.186C42.1978 13.1422 42.2045 13.0985 42.2088 13.0548C42.2222 12.9167 42.2058 12.7364 42.112 12.6153L42.3361 12.3991C41.2124 11.825 40.4424 10.651 40.4424 9.29604C40.4424 8.92895 40.4989 8.57513 40.6037 8.24294L40.975 5.81812H43.9943V5.81914C45.8589 5.85929 47.3548 7.07518 47.3548 9.29604C47.3548 10.6015 46.7297 11.6525 45.784 12.2451L45.7864 12.247C45.7219 12.2917 45.646 12.3373 45.5645 12.3861L45.5639 12.3865C45.2957 12.5473 44.9679 12.7438 44.795 13.0651C44.645 13.3437 44.6159 13.7959 44.6159 14.0056L44.6152 14.0052V14.9564Z" fill="url(#paint3_radial_363_1211)"/>
<g filter="url(#filter2_f_363_1211)">
<path d="M40.162 7.2196C40.162 7.39528 40.2079 7.55977 40.288 7.70071C39.9674 7.8613 39.7461 8.20298 39.7461 8.59855C39.7461 8.90614 39.8799 9.18117 40.0902 9.36375C39.8886 9.54237 39.7607 9.80862 39.7607 10.106C39.7607 10.4957 39.9803 10.832 40.2976 10.9876C40.1533 11.1587 40.0658 11.3831 40.0658 11.6287C40.0658 12.1653 40.4831 12.6003 40.9979 12.6003H42.0303C42.5451 12.6003 42.9624 12.1653 42.9624 11.6287C42.9624 11.3294 42.8326 11.0617 42.6284 10.8835C42.8541 10.7058 43 10.4237 43 10.106C43 9.80505 42.8691 9.53599 42.6633 9.35734C42.8693 9.17475 43 8.90258 43 8.59855C43 8.32568 42.8947 8.07846 42.7242 7.89863C42.8943 7.72677 43 7.48606 43 7.2196C43 6.69745 42.594 6.27417 42.093 6.27417H41.069C40.5681 6.27417 40.162 6.69745 40.162 7.2196Z" fill="#E69E12"/>
</g>
<g filter="url(#filter3_f_363_1211)">
<path d="M45.5466 12.1188C44.1804 11.2786 42.8092 11.8685 42.4539 12.1188L42.1387 11.7134C44.1564 10.7526 45.2313 11.5783 45.5466 12.1188Z" fill="#F8A047"/>
</g>
<path d="M40.598 10.7107C39.999 10.7107 39.5134 11.1962 39.5134 11.7952C39.5134 12.3942 39.999 12.8798 40.598 12.8798H41.7992C42.3982 12.8798 42.8838 12.3942 42.8838 11.7952C42.8838 11.1962 42.3982 10.7107 41.7992 10.7107H40.598Z" fill="url(#paint4_linear_363_1211)"/>
<path d="M40.598 10.7107C39.999 10.7107 39.5134 11.1962 39.5134 11.7952C39.5134 12.3942 39.999 12.8798 40.598 12.8798H41.7992C42.3982 12.8798 42.8838 12.3942 42.8838 11.7952C42.8838 11.1962 42.3982 10.7107 41.7992 10.7107H40.598Z" fill="url(#paint5_linear_363_1211)"/>
<path d="M40.598 10.7107C39.999 10.7107 39.5134 11.1962 39.5134 11.7952C39.5134 12.3942 39.999 12.8798 40.598 12.8798H41.7992C42.3982 12.8798 42.8838 12.3942 42.8838 11.7952C42.8838 11.1962 42.3982 10.7107 41.7992 10.7107H40.598Z" fill="url(#paint6_radial_363_1211)"/>
<path d="M40.598 10.7107C39.999 10.7107 39.5134 11.1962 39.5134 11.7952C39.5134 12.3942 39.999 12.8798 40.598 12.8798H41.7992C42.3982 12.8798 42.8838 12.3942 42.8838 11.7952C42.8838 11.1962 42.3982 10.7107 41.7992 10.7107H40.598Z" fill="url(#paint7_radial_363_1211)"/>
<path d="M40.598 10.7107C39.999 10.7107 39.5134 11.1962 39.5134 11.7952C39.5134 12.3942 39.999 12.8798 40.598 12.8798H41.7992C42.3982 12.8798 42.8838 12.3942 42.8838 11.7952C42.8838 11.1962 42.3982 10.7107 41.7992 10.7107H40.598Z" fill="url(#paint8_radial_363_1211)"/>
<path d="M40.6806 5.81812C40.0977 5.81812 39.6252 6.29062 39.6252 6.87348C39.6252 7.45633 40.0977 7.92883 40.6806 7.92883H41.8722C42.455 7.92883 42.9275 7.45633 42.9275 6.87348C42.9275 6.29062 42.455 5.81812 41.8722 5.81812H40.6806Z" fill="url(#paint9_linear_363_1211)"/>
<path d="M40.6806 5.81812C40.0977 5.81812 39.6252 6.29062 39.6252 6.87348C39.6252 7.45633 40.0977 7.92883 40.6806 7.92883H41.8722C42.455 7.92883 42.9275 7.45633 42.9275 6.87348C42.9275 6.29062 42.455 5.81812 41.8722 5.81812H40.6806Z" fill="url(#paint10_radial_363_1211)"/>
<path d="M40.6806 5.81812C40.0977 5.81812 39.6252 6.29062 39.6252 6.87348C39.6252 7.45633 40.0977 7.92883 40.6806 7.92883H41.8722C42.455 7.92883 42.9275 7.45633 42.9275 6.87348C42.9275 6.29062 42.455 5.81812 41.8722 5.81812H40.6806Z" fill="url(#paint11_radial_363_1211)"/>
<path d="M40.6806 5.81812C40.0977 5.81812 39.6252 6.29062 39.6252 6.87348C39.6252 7.45633 40.0977 7.92883 40.6806 7.92883H41.8722C42.455 7.92883 42.9275 7.45633 42.9275 6.87348C42.9275 6.29062 42.455 5.81812 41.8722 5.81812H40.6806Z" fill="url(#paint12_radial_363_1211)"/>
<path d="M39.1414 8.39276V8.43276C39.1414 9.03546 39.6299 9.52405 40.2326 9.52405H41.8363C42.439 9.52405 42.9275 9.03546 42.9275 8.43276V8.39276C42.9275 7.79006 42.439 7.30147 41.8363 7.30147H40.2326C39.6299 7.30147 39.1414 7.79006 39.1414 8.39276Z" fill="url(#paint13_linear_363_1211)"/>
<path d="M39.1414 8.39276V8.43276C39.1414 9.03546 39.6299 9.52405 40.2326 9.52405H41.8363C42.439 9.52405 42.9275 9.03546 42.9275 8.43276V8.39276C42.9275 7.79006 42.439 7.30147 41.8363 7.30147H40.2326C39.6299 7.30147 39.1414 7.79006 39.1414 8.39276Z" fill="url(#paint14_radial_363_1211)"/>
<path d="M39.1414 8.39276V8.43276C39.1414 9.03546 39.6299 9.52405 40.2326 9.52405H41.8363C42.439 9.52405 42.9275 9.03546 42.9275 8.43276V8.39276C42.9275 7.79006 42.439 7.30147 41.8363 7.30147H40.2326C39.6299 7.30147 39.1414 7.79006 39.1414 8.39276Z" fill="url(#paint15_radial_363_1211)"/>
<path d="M39.1414 8.39276V8.43276C39.1414 9.03546 39.6299 9.52405 40.2326 9.52405H41.8363C42.439 9.52405 42.9275 9.03546 42.9275 8.43276V8.39276C42.9275 7.79006 42.439 7.30147 41.8363 7.30147H40.2326C39.6299 7.30147 39.1414 7.79006 39.1414 8.39276Z" fill="url(#paint16_radial_363_1211)"/>
<path d="M39.1584 10.0954V10.0954C39.1584 10.6957 39.6451 11.1824 40.2454 11.1824H41.8406C42.441 11.1824 42.9276 10.6957 42.9276 10.0954V10.0954C42.9276 9.49509 42.441 9.00843 41.8406 9.00843H40.2454C39.6451 9.00843 39.1584 9.49509 39.1584 10.0954Z" fill="url(#paint17_linear_363_1211)"/>
<path d="M39.1584 10.0954V10.0954C39.1584 10.6957 39.6451 11.1824 40.2454 11.1824H41.8406C42.441 11.1824 42.9276 10.6957 42.9276 10.0954V10.0954C42.9276 9.49509 42.441 9.00843 41.8406 9.00843H40.2454C39.6451 9.00843 39.1584 9.49509 39.1584 10.0954Z" fill="url(#paint18_radial_363_1211)"/>
<path d="M39.1584 10.0954V10.0954C39.1584 10.6957 39.6451 11.1824 40.2454 11.1824H41.8406C42.441 11.1824 42.9276 10.6957 42.9276 10.0954V10.0954C42.9276 9.49509 42.441 9.00843 41.8406 9.00843H40.2454C39.6451 9.00843 39.1584 9.49509 39.1584 10.0954Z" fill="url(#paint19_radial_363_1211)"/>
<path d="M39.1584 10.0954V10.0954C39.1584 10.6957 39.6451 11.1824 40.2454 11.1824H41.8406C42.441 11.1824 42.9276 10.6957 42.9276 10.0954V10.0954C42.9276 9.49509 42.441 9.00843 41.8406 9.00843H40.2454C39.6451 9.00843 39.1584 9.49509 39.1584 10.0954Z" fill="url(#paint20_radial_363_1211)"/>
<path d="M44.1649 15.9055C44.4397 15.6808 44.6151 15.339 44.6151 14.9564V14.8848H44.0612C44.0593 14.9585 44.0629 15.1474 44.0932 15.3128L44.0995 15.3468C44.1302 15.5134 44.1654 15.7044 44.1649 15.9055Z" fill="url(#paint21_linear_363_1211)"/>
<path d="M44.1649 15.9055C44.4397 15.6808 44.6151 15.339 44.6151 14.9564V14.8848H44.0612C44.0593 14.9585 44.0629 15.1474 44.0932 15.3128L44.0995 15.3468C44.1302 15.5134 44.1654 15.7044 44.1649 15.9055Z" fill="url(#paint22_radial_363_1211)"/>
</g>
<g filter="url(#filter4_b_363_1211)">
<rect x="64" width="22" height="22" rx="11" fill="black" fill-opacity="0.2"/>
<rect x="64.5" y="0.5" width="21" height="21" rx="10.5" stroke="#2D384A"/>
</g>
<g clip-path="url(#clip1_363_1211)">
<mask id="mask0_363_1211" style="mask-type:luminance" maskUnits="userSpaceOnUse" x="69" y="5" width="12" height="12">
<path d="M81 5H69V17H81V5Z" fill="white"/>
</mask>
<g mask="url(#mask0_363_1211)">
<mask id="mask1_363_1211" style="mask-type:luminance" maskUnits="userSpaceOnUse" x="66" y="2" width="18" height="18">
<path d="M74.9999 2.51472L66.5146 11L74.9999 19.4853L83.4852 11L74.9999 2.51472Z" fill="white"/>
</mask>
<g mask="url(#mask1_363_1211)">
<path d="M78.7114 14.712C81.1866 12.2369 80.7615 9.33807 78.7114 7.28798C76.6613 5.23789 73.7625 4.81281 71.2874 7.28798C68.8122 9.76313 69.2373 12.6619 71.2874 14.712C73.3374 16.7621 76.2362 17.1872 78.7114 14.712Z" fill="url(#paint23_radial_363_1211)"/>
<path d="M78.7114 14.712C81.1866 12.2369 80.7615 9.33807 78.7114 7.28798C76.6613 5.23789 73.7625 4.81281 71.2874 7.28798C68.8122 9.76313 69.2373 12.6619 71.2874 14.712C73.3374 16.7621 76.2362 17.1872 78.7114 14.712Z" fill="url(#paint24_radial_363_1211)"/>
<path d="M78.7114 14.712C81.1866 12.2369 80.7615 9.33807 78.7114 7.28798C76.6613 5.23789 73.7625 4.81281 71.2874 7.28798C68.8122 9.76313 69.2373 12.6619 71.2874 14.712C73.3374 16.7621 76.2362 17.1872 78.7114 14.712Z" fill="url(#paint25_radial_363_1211)"/>
<path d="M78.7114 14.712C81.1866 12.2369 80.7615 9.33807 78.7114 7.28798C76.6613 5.23789 73.7625 4.81281 71.2874 7.28798C68.8122 9.76313 69.2373 12.6619 71.2874 14.712C73.3374 16.7621 76.2362 17.1872 78.7114 14.712Z" fill="url(#paint26_radial_363_1211)" fill-opacity="0.6"/>
<path d="M78.7114 14.712C81.1866 12.2369 80.7615 9.33807 78.7114 7.28798C76.6613 5.23789 73.7625 4.81281 71.2874 7.28798C68.8122 9.76313 69.2373 12.6619 71.2874 14.712C73.3374 16.7621 76.2362 17.1872 78.7114 14.712Z" fill="url(#paint27_radial_363_1211)"/>
<path d="M78.7114 14.712C81.1866 12.2369 80.7615 9.33807 78.7114 7.28798C76.6613 5.23789 73.7625 4.81281 71.2874 7.28798C68.8122 9.76313 69.2373 12.6619 71.2874 14.712C73.3374 16.7621 76.2362 17.1872 78.7114 14.712Z" fill="url(#paint28_radial_363_1211)"/>
<path d="M78.7114 14.712C81.1866 12.2369 80.7615 9.33807 78.7114 7.28798C76.6613 5.23789 73.7625 4.81281 71.2874 7.28798C68.8122 9.76313 69.2373 12.6619 71.2874 14.712C73.3374 16.7621 76.2362 17.1872 78.7114 14.712Z" fill="url(#paint29_radial_363_1211)"/>
<path d="M78.7114 14.712C81.1866 12.2369 80.7615 9.33807 78.7114 7.28798C76.6613 5.23789 73.7625 4.81281 71.2874 7.28798C68.8122 9.76313 69.2373 12.6619 71.2874 14.712C73.3374 16.7621 76.2362 17.1872 78.7114 14.712Z" fill="url(#paint30_radial_363_1211)"/>
</g>
<mask id="mask2_363_1211" style="mask-type:luminance" maskUnits="userSpaceOnUse" x="66" y="2" width="18" height="18">
<path d="M74.9999 2.51472L66.5146 11L74.9999 19.4853L83.4852 11L74.9999 2.51472Z" fill="white"/>
</mask>
<g mask="url(#mask2_363_1211)">
<g filter="url(#filter5_f_363_1211)">
<path style="mix-blend-mode:multiply" d="M72.819 12.2941C72.7535 12.4905 72.5411 12.5967 72.3446 12.5312C72.1482 12.4657 72.042 12.2534 72.1075 12.0569L72.4 11.1793L73.2594 10.3199C73.3593 10.4204 73.3941 10.5686 73.3493 10.7031L72.819 12.2941Z" fill="url(#paint31_radial_363_1211)" fill-opacity="0.6"/>
<path style="mix-blend-mode:multiply" d="M71.2853 10.7603C71.0888 10.8258 70.9827 11.0381 71.0482 11.2346C71.1136 11.4311 71.326 11.5373 71.5225 11.4718L72.4001 11.1793L73.2595 10.3199C73.159 10.22 73.0108 10.1851 72.8763 10.2299L71.2853 10.7603Z" fill="url(#paint32_radial_363_1211)" fill-opacity="0.6"/>
</g>
<path d="M72.703 12.1781C72.6375 12.3746 72.4252 12.4808 72.2287 12.4153C72.0322 12.3498 71.926 12.1374 71.9915 11.9409L72.2841 11.0633L73.1434 10.204C73.2433 10.3044 73.2782 10.4526 73.2334 10.5871L72.703 12.1781Z" fill="url(#paint33_linear_363_1211)"/>
<path d="M71.1691 10.6443C70.9726 10.7098 70.8665 10.9222 70.9319 11.1186C70.9974 11.3151 71.2098 11.4213 71.4063 11.3558L72.2839 11.0633L73.1432 10.2039C73.0428 10.104 72.8946 10.0692 72.7601 10.114L71.1691 10.6443Z" fill="url(#paint34_linear_363_1211)"/>
<g filter="url(#filter6_f_363_1211)">
<path d="M76.1365 8.97648C76.3329 8.91096 76.4391 8.6986 76.3736 8.50212C76.3081 8.30564 76.0958 8.19946 75.8993 8.26495L75.0217 8.55749L74.1624 9.4168C74.2628 9.51678 74.411 9.55161 74.5455 9.5068L76.1365 8.97648Z" fill="url(#paint35_radial_363_1211)"/>
<path d="M74.6028 7.44268C74.6683 7.24619 74.8807 7.14001 75.0771 7.2055C75.2736 7.271 75.3798 7.48337 75.3143 7.67984L75.0218 8.55748L74.1625 9.41678C74.0625 9.31636 74.0277 9.16812 74.0725 9.03365L74.6028 7.44268Z" fill="url(#paint36_radial_363_1211)"/>
</g>
<path d="M76.1738 8.70718C76.3703 8.64168 76.4765 8.42931 76.411 8.23284C76.3455 8.03636 76.1331 7.93017 75.9367 7.99566L75.059 8.28821L74.1997 9.14752C74.3001 9.24749 74.4484 9.28233 74.5828 9.23752L76.1738 8.70718Z" fill="url(#paint37_linear_363_1211)"/>
<path d="M74.6401 7.17338C74.7057 6.97691 74.918 6.87072 75.1145 6.93622C75.311 7.00171 75.4172 7.21408 75.3517 7.41056L75.0591 8.28819L74.1998 9.14752C74.0998 9.04709 74.065 8.89886 74.1098 8.76438L74.6401 7.17338Z" fill="url(#paint38_linear_363_1211)"/>
</g>
<path d="M77.6517 13.6517C75 16.3033 72.3484 13.6517 72.3484 13.6517L77.6517 8.34839C77.6517 8.34839 80.3034 11 77.6517 13.6517Z" fill="url(#paint39_radial_363_1211)"/>
<path d="M77.3865 9.40902L73.409 13.3865C73.1893 13.6062 72.8332 13.6062 72.6135 13.3865L77.3865 8.61353C77.6062 8.8332 77.6062 9.18934 77.3865 9.40902Z" fill="url(#paint40_linear_363_1211)"/>
<mask id="mask3_363_1211" style="mask-type:luminance" maskUnits="userSpaceOnUse" x="66" y="2" width="18" height="18">
<path d="M74.9999 2.51472L66.5146 11L74.9999 19.4853L83.4852 11L74.9999 2.51472Z" fill="white"/>
</mask>
<g mask="url(#mask3_363_1211)">
<path fill-rule="evenodd" clip-rule="evenodd" d="M73.0277 15.9552C73.3929 15.8858 73.674 15.5648 73.674 15.1736V13.3865C73.674 12.9471 73.3179 12.5909 72.8785 12.5909C72.4392 12.5909 72.083 12.9471 72.083 13.3865V15.1736C72.083 15.2607 72.0971 15.3448 72.1232 15.4236C72.4141 15.6317 72.7166 15.8098 73.0277 15.9552Z" fill="url(#paint41_radial_363_1211)"/>
<path fill-rule="evenodd" clip-rule="evenodd" d="M79.2428 7.88428H77.5853C77.1459 7.88428 76.7898 8.24043 76.7898 8.67977C76.7898 9.1191 77.1459 9.47527 77.5853 9.47527H79.3724C79.6354 9.47527 79.8668 9.34818 80.0112 9.1539C79.8184 8.7115 79.5597 8.28571 79.2428 7.88428Z" fill="url(#paint42_radial_363_1211)"/>
<path d="M73.1437 13.3866V15.1737C73.1437 15.6391 72.746 16.0051 72.2822 15.9664C71.8699 15.9321 71.5527 15.5874 71.5527 15.1737V13.3866C71.5527 12.9472 71.9089 12.5911 72.3482 12.5911C72.7876 12.5911 73.1437 12.9472 73.1437 13.3866Z" fill="url(#paint43_radial_363_1211)"/>
<path d="M77.4528 9.07757H79.2399C79.7052 9.07757 80.0712 8.6798 80.0326 8.21601C79.9983 7.80371 79.6536 7.48657 79.2399 7.48657H77.4528C77.0134 7.48657 76.6572 7.84273 76.6572 8.28207C76.6572 8.72141 77.0134 9.07757 77.4528 9.07757Z" fill="url(#paint44_radial_363_1211)"/>
</g>
</g>
</g>
<g filter="url(#filter7_b_363_1211)">
<rect x="96" width="22" height="22" rx="11" fill="black" fill-opacity="0.2"/>
<rect x="96.5" y="0.5" width="21" height="21" rx="10.5" stroke="#2D384A"/>
</g>
<path d="M104.463 10.3438L106.994 16.3115L109.818 10.3438H104.463Z" fill="#72ADF1"/>
<path d="M104.463 10.3438L106.994 16.3115L109.818 10.3438H104.463Z" fill="url(#paint45_linear_363_1211)"/>
<path d="M104.463 10.3438L106.994 16.3115L109.818 10.3438H104.463Z" fill="url(#paint46_linear_363_1211)"/>
<path d="M103.83 7.98828L101.768 10.7656H105.154L107 7.98828H103.83Z" fill="url(#paint47_linear_363_1211)"/>
<path d="M103.83 7.98828L101.768 10.7656H105.154L107 7.98828H103.83Z" fill="url(#paint48_linear_363_1211)"/>
<path d="M103.83 7.98828L101.768 10.7656H105.154L107 7.98828H103.83Z" fill="url(#paint49_linear_363_1211)"/>
<path d="M110.161 7.98828L112.224 10.7656H108.837L106.991 7.98828H110.161Z" fill="url(#paint50_radial_363_1211)"/>
<path d="M110.161 7.98828L112.224 10.7656H108.837L106.991 7.98828H110.161Z" fill="url(#paint51_linear_363_1211)"/>
<path d="M106.996 16.3152L101.768 10.7656H105.154L106.996 16.3152Z" fill="url(#paint52_linear_363_1211)"/>
<path d="M106.996 16.3152L101.768 10.7656H105.154L106.996 16.3152Z" fill="url(#paint53_linear_363_1211)"/>
<path d="M106.994 16.3115L112.225 10.7656H108.838L106.994 16.3115Z" fill="url(#paint54_radial_363_1211)"/>
<path d="M106.994 16.3115L112.225 10.7656H108.838L106.994 16.3115Z" fill="url(#paint55_linear_363_1211)"/>
<path d="M106.994 16.3115L112.225 10.7656H108.838L106.994 16.3115Z" fill="url(#paint56_linear_363_1211)"/>
<path d="M105.154 10.7656H108.837L106.996 7.99487L105.154 10.7656Z" fill="url(#paint57_linear_363_1211)"/>
<g filter="url(#filter8_b_363_1211)">
<rect width="22" height="22" rx="11" fill="black" fill-opacity="0.2"/>
<rect x="0.5" y="0.5" width="21" height="21" rx="10.5" stroke="#2D384A"/>
</g>
<g clip-path="url(#clip2_363_1211)">
<g filter="url(#filter9_i_363_1211)">
<path d="M9.60041 6.93437C9.60041 6.2533 10.1525 5.70117 10.8336 5.70117C11.5147 5.70117 12.0668 6.2533 12.0668 6.93437V8.35355C12.0668 8.47457 12.0584 8.59525 12.0397 8.71589C12.0329 8.75995 12.0261 8.80394 12.0218 8.84789C12.0084 8.98679 12.0248 9.16825 12.1192 9.29013L11.8937 9.50763C13.0244 10.0853 13.7992 11.2666 13.7992 12.63C13.7992 12.9994 13.7423 13.3554 13.6369 13.6897L13.2633 16.1296H10.2252V16.1286C8.34901 16.0882 6.84375 14.8647 6.84375 12.63C6.84375 11.3164 7.47274 10.2589 8.42431 9.66262L8.42196 9.6607C8.48678 9.61567 8.56322 9.56984 8.64519 9.52072L8.64578 9.52034C8.91566 9.35857 9.24548 9.16083 9.41951 8.83747C9.57041 8.55713 9.5997 8.10212 9.5997 7.89119L9.60041 7.89151V6.93437Z" fill="url(#paint58_linear_363_1211)"/>
</g>
<path d="M9.60041 6.93437C9.60041 6.2533 10.1525 5.70117 10.8336 5.70117C11.5147 5.70117 12.0668 6.2533 12.0668 6.93437V8.35355C12.0668 8.47457 12.0584 8.59525 12.0397 8.71589C12.0329 8.75995 12.0261 8.80394 12.0218 8.84789C12.0084 8.98679 12.0248 9.16825 12.1192 9.29013L11.8937 9.50763C13.0244 10.0853 13.7992 11.2666 13.7992 12.63C13.7992 12.9994 13.7423 13.3554 13.6369 13.6897L13.2633 16.1296H10.2252V16.1286C8.34901 16.0882 6.84375 14.8647 6.84375 12.63C6.84375 11.3164 7.47274 10.2589 8.42431 9.66262L8.42196 9.6607C8.48678 9.61567 8.56322 9.56984 8.64519 9.52072L8.64578 9.52034C8.91566 9.35857 9.24548 9.16083 9.41951 8.83747C9.57041 8.55713 9.5997 8.10212 9.5997 7.89119L9.60041 7.89151V6.93437Z" fill="url(#paint59_radial_363_1211)"/>
<path d="M9.60041 6.93437C9.60041 6.2533 10.1525 5.70117 10.8336 5.70117C11.5147 5.70117 12.0668 6.2533 12.0668 6.93437V8.35355C12.0668 8.47457 12.0584 8.59525 12.0397 8.71589C12.0329 8.75995 12.0261 8.80394 12.0218 8.84789C12.0084 8.98679 12.0248 9.16825 12.1192 9.29013L11.8937 9.50763C13.0244 10.0853 13.7992 11.2666 13.7992 12.63C13.7992 12.9994 13.7423 13.3554 13.6369 13.6897L13.2633 16.1296H10.2252V16.1286C8.34901 16.0882 6.84375 14.8647 6.84375 12.63C6.84375 11.3164 7.47274 10.2589 8.42431 9.66262L8.42196 9.6607C8.48678 9.61567 8.56322 9.56984 8.64519 9.52072L8.64578 9.52034C8.91566 9.35857 9.24548 9.16083 9.41951 8.83747C9.57041 8.55713 9.5997 8.10212 9.5997 7.89119L9.60041 7.89151V6.93437Z" fill="url(#paint60_radial_363_1211)"/>
<path d="M9.60041 6.93437C9.60041 6.2533 10.1525 5.70117 10.8336 5.70117C11.5147 5.70117 12.0668 6.2533 12.0668 6.93437V8.35355C12.0668 8.47457 12.0584 8.59525 12.0397 8.71589C12.0329 8.75995 12.0261 8.80394 12.0218 8.84789C12.0084 8.98679 12.0248 9.16825 12.1192 9.29013L11.8937 9.50763C13.0244 10.0853 13.7992 11.2666 13.7992 12.63C13.7992 12.9994 13.7423 13.3554 13.6369 13.6897L13.2633 16.1296H10.2252V16.1286C8.34901 16.0882 6.84375 14.8647 6.84375 12.63C6.84375 11.3164 7.47274 10.2589 8.42431 9.66262L8.42196 9.6607C8.48678 9.61567 8.56322 9.56984 8.64519 9.52072L8.64578 9.52034C8.91566 9.35857 9.24548 9.16083 9.41951 8.83747C9.57041 8.55713 9.5997 8.10212 9.5997 7.89119L9.60041 7.89151V6.93437Z" fill="url(#paint61_radial_363_1211)"/>
<path d="M9.60041 6.93437C9.60041 6.2533 10.1525 5.70117 10.8336 5.70117C11.5147 5.70117 12.0668 6.2533 12.0668 6.93437V8.35355C12.0668 8.47457 12.0584 8.59525 12.0397 8.71589C12.0329 8.75995 12.0261 8.80394 12.0218 8.84789C12.0084 8.98679 12.0248 9.16825 12.1192 9.29013L11.8937 9.50763C13.0244 10.0853 13.7992 11.2666 13.7992 12.63C13.7992 12.9994 13.7423 13.3554 13.6369 13.6897L13.2633 16.1296H10.2252V16.1286C8.34901 16.0882 6.84375 14.8647 6.84375 12.63C6.84375 11.3164 7.47274 10.2589 8.42431 9.66262L8.42196 9.6607C8.48678 9.61567 8.56322 9.56984 8.64519 9.52072L8.64578 9.52034C8.91566 9.35857 9.24548 9.16083 9.41951 8.83747C9.57041 8.55713 9.5997 8.10212 9.5997 7.89119L9.60041 7.89151V6.93437Z" fill="url(#paint62_linear_363_1211)"/>
<g filter="url(#filter10_f_363_1211)">
<path d="M13.8796 10.5158C13.8796 9.98728 13.4512 9.55884 12.9227 9.55884H11.8627C11.3343 9.55884 10.9058 9.98728 10.9058 10.5158C10.9058 10.8105 11.0391 11.0741 11.2486 11.2496C11.0169 11.4249 10.8672 11.7031 10.8672 12.0155C10.8672 12.3081 10.9985 12.5706 11.2053 12.7467C10.9985 12.9223 10.8672 13.1841 10.8672 13.4767V13.5239C10.8672 13.7861 10.9726 14.0236 11.1434 14.1965C10.9729 14.3653 10.8672 14.5995 10.8672 14.8584C10.8672 15.3727 11.2841 15.7896 11.7983 15.7896H12.8497C13.364 15.7896 13.7809 15.3727 13.7809 14.8584C13.7809 14.6882 13.7352 14.5286 13.6555 14.3914C13.9818 14.2389 14.2079 13.9078 14.2079 13.5239V13.4767C14.2079 13.1806 14.0734 12.9159 13.8622 12.7403C14.0647 12.5643 14.1928 12.3046 14.1928 12.0155C14.1928 11.6322 13.9674 11.3003 13.6419 11.147C13.7899 10.9785 13.8796 10.7576 13.8796 10.5158Z" fill="url(#paint63_linear_363_1211)"/>
</g>
<g filter="url(#filter11_i_363_1211)">
<path d="M14.7339 10.1152V10.1152C14.7339 9.51251 14.2453 9.02393 13.6426 9.02393H12.4339C11.8312 9.02393 11.3426 9.51251 11.3426 10.1152V10.1152C11.3426 10.7179 11.8312 11.2065 12.4339 11.2065H13.6426C14.2453 11.2065 14.7339 10.7179 14.7339 10.1152Z" fill="url(#paint64_linear_363_1211)"/>
<path d="M14.7339 10.1152V10.1152C14.7339 9.51251 14.2453 9.02393 13.6426 9.02393H12.4339C11.8312 9.02393 11.3426 9.51251 11.3426 10.1152V10.1152C11.3426 10.7179 11.8312 11.2065 12.4339 11.2065H13.6426C14.2453 11.2065 14.7339 10.7179 14.7339 10.1152Z" fill="url(#paint65_radial_363_1211)"/>
</g>
<g filter="url(#filter12_i_363_1211)">
<path d="M13.5592 16.1296C14.1457 16.1296 14.6211 15.6541 14.6211 15.0677C14.6211 14.4812 14.1457 14.0057 13.5592 14.0057H12.3602C11.7737 14.0057 11.2983 14.4812 11.2983 15.0677C11.2983 15.6541 11.7737 16.1296 12.3602 16.1296H13.5592Z" fill="url(#paint66_linear_363_1211)"/>
<path d="M13.5592 16.1296C14.1457 16.1296 14.6211 15.6541 14.6211 15.0677C14.6211 14.4812 14.1457 14.0057 13.5592 14.0057H12.3602C11.7737 14.0057 11.2983 14.4812 11.2983 15.0677C11.2983 15.6541 11.7737 16.1296 12.3602 16.1296H13.5592Z" fill="url(#paint67_radial_363_1211)"/>
<path d="M13.5592 16.1296C14.1457 16.1296 14.6211 15.6541 14.6211 15.0677C14.6211 14.4812 14.1457 14.0057 13.5592 14.0057H12.3602C11.7737 14.0057 11.2983 14.4812 11.2983 15.0677C11.2983 15.6541 11.7737 16.1296 12.3602 16.1296H13.5592Z" fill="url(#paint68_radial_363_1211)"/>
</g>
<path d="M13.5594 16.1296C14.1459 16.1296 14.6213 15.6541 14.6213 15.0677C14.6213 14.4812 14.1459 14.0057 13.5594 14.0057H12.3604C11.774 14.0057 11.2985 14.4812 11.2985 15.0677C11.2985 15.6541 11.774 16.1296 12.3604 16.1296H13.5594Z" fill="url(#paint69_linear_363_1211)"/>
<path d="M13.5594 16.1296C14.1459 16.1296 14.6213 15.6541 14.6213 15.0677C14.6213 14.4812 14.1459 14.0057 13.5594 14.0057H12.3604C11.774 14.0057 11.2985 14.4812 11.2985 15.0677C11.2985 15.6541 11.774 16.1296 12.3604 16.1296H13.5594Z" fill="url(#paint70_radial_363_1211)"/>
<g filter="url(#filter13_f_363_1211)">
<path d="M14.0952 14.637H12.6349C12.4821 14.637 12.3582 14.7609 12.3582 14.9138C12.3582 15.0666 12.4821 15.1905 12.6349 15.1905H14.0952C14.2481 15.1905 14.372 15.0666 14.372 14.9138C14.372 14.7609 14.2481 14.637 14.0952 14.637Z" fill="url(#paint71_linear_363_1211)"/>
</g>
<path d="M15.1082 13.5188V13.5188C15.1082 12.9013 14.6075 12.4006 13.9899 12.4006H12.4166C11.7991 12.4006 11.2984 12.9013 11.2984 13.5188V13.5188C11.2984 14.1364 11.7991 14.637 12.4166 14.637H13.9899C14.6075 14.637 15.1082 14.1364 15.1082 13.5188Z" fill="#C4C4C4" fill-opacity="0.66"/>
<g filter="url(#filter14_i_363_1211)">
<path d="M15.1082 13.5458V13.4919C15.1082 12.8892 14.6196 12.4006 14.0169 12.4006H12.3897C11.787 12.4006 11.2984 12.8892 11.2984 13.4919V13.5458C11.2984 14.1485 11.787 14.637 12.3897 14.637H14.0169C14.6196 14.637 15.1082 14.1485 15.1082 13.5458Z" fill="url(#paint72_linear_363_1211)"/>
<path d="M15.1082 13.5458V13.4919C15.1082 12.8892 14.6196 12.4006 14.0169 12.4006H12.3897C11.787 12.4006 11.2984 12.8892 11.2984 13.4919V13.5458C11.2984 14.1485 11.787 14.637 12.3897 14.637H14.0169C14.6196 14.637 15.1082 14.1485 15.1082 13.5458Z" fill="url(#paint73_radial_363_1211)"/>
<path d="M15.1082 13.5458V13.4919C15.1082 12.8892 14.6196 12.4006 14.0169 12.4006H12.3897C11.787 12.4006 11.2984 12.8892 11.2984 13.4919V13.5458C11.2984 14.1485 11.787 14.637 12.3897 14.637H14.0169C14.6196 14.637 15.1082 14.1485 15.1082 13.5458Z" fill="url(#paint74_radial_363_1211)"/>
</g>
<g filter="url(#filter15_f_363_1211)">
<path d="M14.4569 13.1857H12.4887C12.3358 13.1857 12.2119 13.3096 12.2119 13.4625C12.2119 13.6153 12.3358 13.7392 12.4887 13.7392H14.4569C14.6098 13.7392 14.7337 13.6153 14.7337 13.4625C14.7337 13.3096 14.6098 13.1857 14.4569 13.1857Z" fill="url(#paint75_linear_363_1211)"/>
</g>
<g filter="url(#filter16_i_363_1211)">
<path d="M15.0908 11.828V11.8231C15.0908 11.2204 14.6022 10.7318 13.9995 10.7318H12.3895C11.7868 10.7318 11.2982 11.2204 11.2982 11.8231V11.828C11.2982 12.4307 11.7868 12.9193 12.3895 12.9193H13.9995C14.6022 12.9193 15.0908 12.4307 15.0908 11.828Z" fill="url(#paint76_linear_363_1211)"/>
<path d="M15.0908 11.828V11.8231C15.0908 11.2204 14.6022 10.7318 13.9995 10.7318H12.3895C11.7868 10.7318 11.2982 11.2204 11.2982 11.8231V11.828C11.2982 12.4307 11.7868 12.9193 12.3895 12.9193H13.9995C14.6022 12.9193 15.0908 12.4307 15.0908 11.828Z" fill="url(#paint77_radial_363_1211)"/>
</g>
<path d="M10.8335 5.70117C10.1524 5.70117 9.60033 6.2533 9.60033 6.93437V7.89151L9.59962 7.89119C9.59962 8.10212 9.57033 8.55713 9.41943 8.83747C9.24539 9.16087 8.91558 9.35857 8.6457 9.52034C8.56351 9.56962 8.48686 9.61559 8.42188 9.6607C8.79494 9.95954 9.55889 10.5566 9.57764 10.5426C9.59639 10.5285 10.4565 10.0719 10.8843 9.84528L10.8661 9.58634C11.5321 9.56905 12.0667 9.02373 12.0667 8.35355V6.93437C12.0667 6.2533 11.5146 5.70117 10.8335 5.70117Z" fill="url(#paint78_radial_363_1211)"/>
<path d="M10.8335 5.70117C10.1524 5.70117 9.60033 6.2533 9.60033 6.93437V7.89151L9.59962 7.89119C9.59962 8.10212 9.57033 8.55713 9.41943 8.83747C9.24539 9.16087 8.91558 9.35857 8.6457 9.52034C8.56351 9.56962 8.48686 9.61559 8.42188 9.6607C8.79494 9.95954 9.55889 10.5566 9.57764 10.5426C9.59639 10.5285 10.4565 10.0719 10.8843 9.84528L10.8661 9.58634C11.5321 9.56905 12.0667 9.02373 12.0667 8.35355V6.93437C12.0667 6.2533 11.5146 5.70117 10.8335 5.70117Z" fill="url(#paint79_radial_363_1211)"/>
<path d="M10.0533 5.97925C9.77682 6.2054 9.60034 6.54926 9.60034 6.93433V7.00638H10.1577C10.1597 6.93216 10.156 6.74212 10.1255 6.57571L10.1192 6.54144C10.0883 6.3738 10.0529 6.1816 10.0533 5.97925Z" fill="#FFBF71"/>
<path d="M10.0533 5.97925C9.77682 6.2054 9.60034 6.54926 9.60034 6.93433V7.00638H10.1577C10.1597 6.93216 10.156 6.74212 10.1255 6.57571L10.1192 6.54144C10.0883 6.3738 10.0529 6.1816 10.0533 5.97925Z" fill="url(#paint80_radial_363_1211)"/>
<g filter="url(#filter17_f_363_1211)">
<path d="M13.9003 9.32166H12.5427C12.2822 9.32166 12.071 9.53283 12.071 9.79332V9.79332C12.071 10.0538 12.2822 10.265 12.5427 10.265H13.9003C14.1608 10.265 14.3719 10.0538 14.3719 9.79332V9.79332C14.3719 9.53283 14.1608 9.32166 13.9003 9.32166Z" fill="url(#paint81_linear_363_1211)"/>
</g>
<g filter="url(#filter18_f_363_1211)">
<path d="M14.262 11H12.5159C12.2554 11 12.0442 11.2112 12.0442 11.4717V11.4717C12.0442 11.7322 12.2554 11.9433 12.5159 11.9433H14.262C14.5225 11.9433 14.7337 11.7322 14.7337 11.4717V11.4717C14.7337 11.2112 14.5225 11 14.262 11Z" fill="url(#paint82_linear_363_1211)"/>
</g>
<g filter="url(#filter19_f_363_1211)">
<path d="M11.7559 6.70435C11.7559 6.40764 11.5153 6.16711 11.2186 6.16711C10.9219 6.16711 10.6814 6.40764 10.6814 6.70435V8.62891C10.6814 8.92561 10.9219 9.16614 11.2186 9.16614C11.5153 9.16614 11.7559 8.92561 11.7559 8.62891V6.70435Z" fill="url(#paint83_linear_363_1211)"/>
</g>
</g>
<defs>
<filter id="filter0_b_363_1211" x="-13" y="-45" width="112" height="112" filterUnits="userSpaceOnUse" color-interpolation-filters="sRGB">
<feFlood flood-opacity="0" result="BackgroundImageFix"/>
<feGaussianBlur in="BackgroundImageFix" stdDeviation="22.5"/>
<feComposite in2="SourceAlpha" operator="in" result="effect1_backgroundBlur_363_1211"/>
<feBlend mode="normal" in="SourceGraphic" in2="effect1_backgroundBlur_363_1211" result="shape"/>
</filter>
<filter id="filter1_i_363_1211" x="40.4424" y="5.81812" width="7.41235" height="10.3639" filterUnits="userSpaceOnUse" color-interpolation-filters="sRGB">
<feFlood flood-opacity="0" result="BackgroundImageFix"/>
<feBlend mode="normal" in="SourceGraphic" in2="BackgroundImageFix" result="shape"/>
<feColorMatrix in="SourceAlpha" type="matrix" values="0 0 0 0 0 0 0 0 0 0 0 0 0 0 0 0 0 0 127 0" result="hardAlpha"/>
<feOffset dx="0.5"/>
<feGaussianBlur stdDeviation="0.5"/>
<feComposite in2="hardAlpha" operator="arithmetic" k2="-1" k3="1"/>
<feColorMatrix type="matrix" values="0 0 0 0 0.854902 0 0 0 0 0.584314 0 0 0 0 0.380392 0 0 0 1 0"/>
<feBlend mode="normal" in2="shape" result="effect1_innerShadow_363_1211"/>
</filter>
<filter id="filter2_f_363_1211" x="37.7461" y="4.27417" width="7.25391" height="10.3262" filterUnits="userSpaceOnUse" color-interpolation-filters="sRGB">
<feFlood flood-opacity="0" result="BackgroundImageFix"/>
<feBlend mode="normal" in="SourceGraphic" in2="BackgroundImageFix" result="shape"/>
<feGaussianBlur stdDeviation="1" result="effect1_foregroundBlur_363_1211"/>
</filter>
<filter id="filter3_f_363_1211" x="40.6387" y="9.77136" width="6.40796" height="3.84741" filterUnits="userSpaceOnUse" color-interpolation-filters="sRGB">
<feFlood flood-opacity="0" result="BackgroundImageFix"/>
<feBlend mode="normal" in="SourceGraphic" in2="BackgroundImageFix" result="shape"/>
<feGaussianBlur stdDeviation="0.75" result="effect1_foregroundBlur_363_1211"/>
</filter>
<filter id="filter4_b_363_1211" x="19" y="-45" width="112" height="112" filterUnits="userSpaceOnUse" color-interpolation-filters="sRGB">
<feFlood flood-opacity="0" result="BackgroundImageFix"/>
<feGaussianBlur in="BackgroundImageFix" stdDeviation="22.5"/>
<feComposite in2="SourceAlpha" operator="in" result="effect1_backgroundBlur_363_1211"/>
<feBlend mode="normal" in="SourceGraphic" in2="effect1_backgroundBlur_363_1211" result="shape"/>
</filter>
<filter id="filter5_f_363_1211" x="70.5288" y="9.71069" width="3.33984" height="3.33984" filterUnits="userSpaceOnUse" color-interpolation-filters="sRGB">
<feFlood flood-opacity="0" result="BackgroundImageFix"/>
<feBlend mode="normal" in="SourceGraphic" in2="BackgroundImageFix" result="shape"/>
<feGaussianBlur stdDeviation="0.25" result="effect1_foregroundBlur_363_1211"/>
</filter>
<filter id="filter6_f_363_1211" x="73.5532" y="6.68616" width="3.33984" height="3.33984" filterUnits="userSpaceOnUse" color-interpolation-filters="sRGB">
<feFlood flood-opacity="0" result="BackgroundImageFix"/>
<feBlend mode="normal" in="SourceGraphic" in2="BackgroundImageFix" result="shape"/>
<feGaussianBlur stdDeviation="0.25" result="effect1_foregroundBlur_363_1211"/>
</filter>
<filter id="filter7_b_363_1211" x="51" y="-45" width="112" height="112" filterUnits="userSpaceOnUse" color-interpolation-filters="sRGB">
<feFlood flood-opacity="0" result="BackgroundImageFix"/>
<feGaussianBlur in="BackgroundImageFix" stdDeviation="22.5"/>
<feComposite in2="SourceAlpha" operator="in" result="effect1_backgroundBlur_363_1211"/>
<feBlend mode="normal" in="SourceGraphic" in2="effect1_backgroundBlur_363_1211" result="shape"/>
</filter>
<filter id="filter8_b_363_1211" x="-45" y="-45" width="112" height="112" filterUnits="userSpaceOnUse" color-interpolation-filters="sRGB">
<feFlood flood-opacity="0" result="BackgroundImageFix"/>
<feGaussianBlur in="BackgroundImageFix" stdDeviation="22.5"/>
<feComposite in2="SourceAlpha" operator="in" result="effect1_backgroundBlur_363_1211"/>
<feBlend mode="normal" in="SourceGraphic" in2="effect1_backgroundBlur_363_1211" result="shape"/>
</filter>
<filter id="filter9_i_363_1211" x="6.84375" y="5.70117" width="7.45557" height="10.4285" filterUnits="userSpaceOnUse" color-interpolation-filters="sRGB">
<feFlood flood-opacity="0" result="BackgroundImageFix"/>
<feBlend mode="normal" in="SourceGraphic" in2="BackgroundImageFix" result="shape"/>
<feColorMatrix in="SourceAlpha" type="matrix" values="0 0 0 0 0 0 0 0 0 0 0 0 0 0 0 0 0 0 127 0" result="hardAlpha"/>
<feOffset dx="0.5"/>
<feGaussianBlur stdDeviation="1"/>
<feComposite in2="hardAlpha" operator="arithmetic" k2="-1" k3="1"/>
<feColorMatrix type="matrix" values="0 0 0 0 0.847059 0 0 0 0 0.458824 0 0 0 0 0.360784 0 0 0 1 0"/>
<feBlend mode="normal" in2="shape" result="effect1_innerShadow_363_1211"/>
</filter>
<filter id="filter10_f_363_1211" x="8.86719" y="7.55884" width="7.34058" height="10.2308" filterUnits="userSpaceOnUse" color-interpolation-filters="sRGB">
<feFlood flood-opacity="0" result="BackgroundImageFix"/>
<feBlend mode="normal" in="SourceGraphic" in2="BackgroundImageFix" result="shape"/>
<feGaussianBlur stdDeviation="1" result="effect1_foregroundBlur_363_1211"/>
</filter>
<filter id="filter11_i_363_1211" x="11.3425" y="9.02393" width="3.89136" height="2.18262" filterUnits="userSpaceOnUse" color-interpolation-filters="sRGB">
<feFlood flood-opacity="0" result="BackgroundImageFix"/>
<feBlend mode="normal" in="SourceGraphic" in2="BackgroundImageFix" result="shape"/>
<feColorMatrix in="SourceAlpha" type="matrix" values="0 0 0 0 0 0 0 0 0 0 0 0 0 0 0 0 0 0 127 0" result="hardAlpha"/>
<feOffset dx="0.5"/>
<feGaussianBlur stdDeviation="0.75"/>
<feComposite in2="hardAlpha" operator="arithmetic" k2="-1" k3="1"/>
<feColorMatrix type="matrix" values="0 0 0 0 0.878431 0 0 0 0 0.541176 0 0 0 0 0.0627451 0 0 0 1 0"/>
<feBlend mode="normal" in2="shape" result="effect1_innerShadow_363_1211"/>
</filter>
<filter id="filter12_i_363_1211" x="11.2983" y="13.5057" width="3.82275" height="2.6239" filterUnits="userSpaceOnUse" color-interpolation-filters="sRGB">
<feFlood flood-opacity="0" result="BackgroundImageFix"/>
<feBlend mode="normal" in="SourceGraphic" in2="BackgroundImageFix" result="shape"/>
<feColorMatrix in="SourceAlpha" type="matrix" values="0 0 0 0 0 0 0 0 0 0 0 0 0 0 0 0 0 0 127 0" result="hardAlpha"/>
<feOffset dx="0.5" dy="-0.5"/>
<feGaussianBlur stdDeviation="0.75"/>
<feComposite in2="hardAlpha" operator="arithmetic" k2="-1" k3="1"/>
<feColorMatrix type="matrix" values="0 0 0 0 0.941176 0 0 0 0 0.643137 0 0 0 0 0.215686 0 0 0 1 0"/>
<feBlend mode="normal" in2="shape" result="effect1_innerShadow_363_1211"/>
</filter>
<filter id="filter13_f_363_1211" x="11.1082" y="13.387" width="4.51392" height="3.05359" filterUnits="userSpaceOnUse" color-interpolation-filters="sRGB">
<feFlood flood-opacity="0" result="BackgroundImageFix"/>
<feBlend mode="normal" in="SourceGraphic" in2="BackgroundImageFix" result="shape"/>
<feGaussianBlur stdDeviation="0.625" result="effect1_foregroundBlur_363_1211"/>
</filter>
<filter id="filter14_i_363_1211" x="11.2983" y="11.9006" width="4.30981" height="2.73645" filterUnits="userSpaceOnUse" color-interpolation-filters="sRGB">
<feFlood flood-opacity="0" result="BackgroundImageFix"/>
<feBlend mode="normal" in="SourceGraphic" in2="BackgroundImageFix" result="shape"/>
<feColorMatrix in="SourceAlpha" type="matrix" values="0 0 0 0 0 0 0 0 0 0 0 0 0 0 0 0 0 0 127 0" result="hardAlpha"/>
<feOffset dx="0.5" dy="-0.5"/>
<feGaussianBlur stdDeviation="0.75"/>
<feComposite in2="hardAlpha" operator="arithmetic" k2="-1" k3="1"/>
<feColorMatrix type="matrix" values="0 0 0 0 0.941176 0 0 0 0 0.643137 0 0 0 0 0.215686 0 0 0 1 0"/>
<feBlend mode="normal" in2="shape" result="effect1_innerShadow_363_1211"/>
</filter>
<filter id="filter15_f_363_1211" x="10.9619" y="11.9357" width="5.02173" height="3.05359" filterUnits="userSpaceOnUse" color-interpolation-filters="sRGB">
<feFlood flood-opacity="0" result="BackgroundImageFix"/>
<feBlend mode="normal" in="SourceGraphic" in2="BackgroundImageFix" result="shape"/>
<feGaussianBlur stdDeviation="0.625" result="effect1_foregroundBlur_363_1211"/>
</filter>
<filter id="filter16_i_363_1211" x="11.2983" y="10.2318" width="4.29248" height="2.6875" filterUnits="userSpaceOnUse" color-interpolation-filters="sRGB">
<feFlood flood-opacity="0" result="BackgroundImageFix"/>
<feBlend mode="normal" in="SourceGraphic" in2="BackgroundImageFix" result="shape"/>
<feColorMatrix in="SourceAlpha" type="matrix" values="0 0 0 0 0 0 0 0 0 0 0 0 0 0 0 0 0 0 127 0" result="hardAlpha"/>
<feOffset dx="0.5" dy="-0.5"/>
<feGaussianBlur stdDeviation="0.75"/>
<feComposite in2="hardAlpha" operator="arithmetic" k2="-1" k3="1"/>
<feColorMatrix type="matrix" values="0 0 0 0 0.941176 0 0 0 0 0.643137 0 0 0 0 0.215686 0 0 0 1 0"/>
<feBlend mode="normal" in2="shape" result="effect1_innerShadow_363_1211"/>
</filter>
<filter id="filter17_f_363_1211" x="10.821" y="8.07166" width="4.80078" height="3.44336" filterUnits="userSpaceOnUse" color-interpolation-filters="sRGB">
<feFlood flood-opacity="0" result="BackgroundImageFix"/>
<feBlend mode="normal" in="SourceGraphic" in2="BackgroundImageFix" result="shape"/>
<feGaussianBlur stdDeviation="0.625" result="effect1_foregroundBlur_363_1211"/>
</filter>
<filter id="filter18_f_363_1211" x="10.7942" y="9.75" width="5.18945" height="3.44336" filterUnits="userSpaceOnUse" color-interpolation-filters="sRGB">
<feFlood flood-opacity="0" result="BackgroundImageFix"/>
<feBlend mode="normal" in="SourceGraphic" in2="BackgroundImageFix" result="shape"/>
<feGaussianBlur stdDeviation="0.625" result="effect1_foregroundBlur_363_1211"/>
</filter>
<filter id="filter19_f_363_1211" x="9.4314" y="4.91711" width="3.57446" height="5.49902" filterUnits="userSpaceOnUse" color-interpolation-filters="sRGB">
<feFlood flood-opacity="0" result="BackgroundImageFix"/>
<feBlend mode="normal" in="SourceGraphic" in2="BackgroundImageFix" result="shape"/>
<feGaussianBlur stdDeviation="0.625" result="effect1_foregroundBlur_363_1211"/>
</filter>
<linearGradient id="paint0_linear_363_1211" x1="46.9703" y1="8.03945" x2="41.5349" y2="16.182" gradientUnits="userSpaceOnUse">
<stop stop-color="#FFDB34"/>
<stop offset="1" stop-color="#E99A30"/>
</linearGradient>
<radialGradient id="paint1_radial_363_1211" cx="0" cy="0" r="1" gradientUnits="userSpaceOnUse" gradientTransform="translate(46.5652 7.74294) rotate(151.39) scale(2.72759 3.13007)">
<stop stop-color="#FFF163"/>
<stop offset="1" stop-color="#FFF163" stop-opacity="0"/>
</radialGradient>
<radialGradient id="paint2_radial_363_1211" cx="0" cy="0" r="1" gradientUnits="userSpaceOnUse" gradientTransform="translate(44.4609 14.7814) scale(1.74149 3.73694)">
<stop stop-color="#FFE14F"/>
<stop offset="1" stop-color="#FFE14F" stop-opacity="0"/>
</radialGradient>
<radialGradient id="paint3_radial_363_1211" cx="0" cy="0" r="1" gradientUnits="userSpaceOnUse" gradientTransform="translate(43.4825 8.83059) rotate(90) scale(7.50855 4.85209)">
<stop offset="0.902214" stop-color="#D87E83" stop-opacity="0"/>
<stop offset="0.99262" stop-color="#D87E83"/>
</radialGradient>
<linearGradient id="paint4_linear_363_1211" x1="39.5134" y1="11.7952" x2="42.8837" y2="11.7952" gradientUnits="userSpaceOnUse">
<stop stop-color="#EC9B2A"/>
<stop offset="1" stop-color="#FFC043"/>
</linearGradient>
<linearGradient id="paint5_linear_363_1211" x1="41.1986" y1="13.0119" x2="41.1986" y2="12.3082" gradientUnits="userSpaceOnUse">
<stop stop-color="#D58191"/>
<stop offset="1" stop-color="#D67F8D" stop-opacity="0"/>
</linearGradient>
<radialGradient id="paint6_radial_363_1211" cx="0" cy="0" r="1" gradientUnits="userSpaceOnUse" gradientTransform="translate(42.3794 11.5474) rotate(180) scale(0.967823 0.751335)">
<stop stop-color="#FFE160"/>
<stop offset="1" stop-color="#FFE160" stop-opacity="0"/>
</radialGradient>
<radialGradient id="paint7_radial_363_1211" cx="0" cy="0" r="1" gradientUnits="userSpaceOnUse" gradientTransform="translate(40.9894 11.1874) rotate(90) scale(0.349235 1.83689)">
<stop stop-color="#DF7F02"/>
<stop offset="1" stop-color="#DF7F02" stop-opacity="0"/>
</radialGradient>
<radialGradient id="paint8_radial_363_1211" cx="0" cy="0" r="1" gradientUnits="userSpaceOnUse" gradientTransform="translate(42.2568 11.7952) rotate(178.647) scale(2.74412 3.0016)">
<stop offset="0.807914" stop-color="#D8A96F" stop-opacity="0"/>
<stop offset="1" stop-color="#D8A96F"/>
</radialGradient>
<linearGradient id="paint9_linear_363_1211" x1="39.9657" y1="7.42477" x2="42.6299" y2="6.54543" gradientUnits="userSpaceOnUse">
<stop stop-color="#F2A430"/>
<stop offset="1" stop-color="#FFCE27"/>
</linearGradient>
<radialGradient id="paint10_radial_363_1211" cx="0" cy="0" r="1" gradientUnits="userSpaceOnUse" gradientTransform="translate(41.2433 7.59727) rotate(-90) scale(0.400643 1.65069)">
<stop stop-color="#E69510"/>
<stop offset="1" stop-color="#E69510" stop-opacity="0"/>
</radialGradient>
<radialGradient id="paint11_radial_363_1211" cx="0" cy="0" r="1" gradientUnits="userSpaceOnUse" gradientTransform="translate(42.3207 6.50887) rotate(180) scale(1.04436 0.893385)">
<stop stop-color="#FFEE65"/>
<stop offset="1" stop-color="#FFEE65" stop-opacity="0"/>
</radialGradient>
<radialGradient id="paint12_radial_363_1211" cx="0" cy="0" r="1" gradientUnits="userSpaceOnUse" gradientTransform="translate(42.3132 6.87348) rotate(178.656) scale(2.68869 2.92085)">
<stop offset="0.807914" stop-color="#D8A96F" stop-opacity="0"/>
<stop offset="1" stop-color="#D8A96F"/>
</radialGradient>
<linearGradient id="paint13_linear_363_1211" x1="39.5317" y1="8.99327" x2="42.5317" y2="7.91515" gradientUnits="userSpaceOnUse">
<stop stop-color="#F2A430"/>
<stop offset="1" stop-color="#FFCE27"/>
</linearGradient>
<radialGradient id="paint14_radial_363_1211" cx="0" cy="0" r="1" gradientUnits="userSpaceOnUse" gradientTransform="translate(40.9965 9.17492) rotate(-90) scale(0.421875 1.89258)">
<stop stop-color="#E69510"/>
<stop offset="1" stop-color="#E69510" stop-opacity="0"/>
</radialGradient>
<radialGradient id="paint15_radial_363_1211" cx="0" cy="0" r="1" gradientUnits="userSpaceOnUse" gradientTransform="translate(42.2025 8.20185) rotate(180) scale(1.00585 0.790245)">
<stop stop-color="#FFEE65"/>
<stop offset="1" stop-color="#FFEE65" stop-opacity="0"/>
</radialGradient>
<radialGradient id="paint16_radial_363_1211" cx="0" cy="0" r="1" gradientUnits="userSpaceOnUse" gradientTransform="translate(42.2232 8.41276) rotate(178.766) scale(3.08255 3.07578)">
<stop offset="0.807914" stop-color="#D8A96F" stop-opacity="0"/>
<stop offset="1" stop-color="#D8A96F"/>
</radialGradient>
<linearGradient id="paint17_linear_363_1211" x1="39.1584" y1="10.0954" x2="42.5444" y2="10.0954" gradientUnits="userSpaceOnUse">
<stop stop-color="#F2A430"/>
<stop offset="1" stop-color="#FFCE27"/>
</linearGradient>
<radialGradient id="paint18_radial_363_1211" cx="0" cy="0" r="1" gradientUnits="userSpaceOnUse" gradientTransform="translate(40.4879 11.278) rotate(-90) scale(0.892631 2.97544)">
<stop stop-color="#E48747"/>
<stop offset="1" stop-color="#E48747" stop-opacity="0"/>
</radialGradient>
<radialGradient id="paint19_radial_363_1211" cx="0" cy="0" r="1" gradientUnits="userSpaceOnUse" gradientTransform="translate(42.2059 9.88911) rotate(180) scale(1.00132 0.772954)">
<stop stop-color="#FFEE65"/>
<stop offset="1" stop-color="#FFEE65" stop-opacity="0"/>
</radialGradient>
<radialGradient id="paint20_radial_363_1211" cx="0" cy="0" r="1" gradientUnits="userSpaceOnUse" gradientTransform="translate(42.2264 10.0954) rotate(178.787) scale(3.06866 3.00849)">
<stop offset="0.807914" stop-color="#D8A96F" stop-opacity="0"/>
<stop offset="1" stop-color="#D8A96F"/>
</radialGradient>
<linearGradient id="paint21_linear_363_1211" x1="44.6151" y1="14.7664" x2="44.6151" y2="16.0802" gradientUnits="userSpaceOnUse">
<stop stop-color="#FFF598"/>
<stop offset="1" stop-color="#FFC99F"/>
</linearGradient>
<radialGradient id="paint22_radial_363_1211" cx="0" cy="0" r="1" gradientUnits="userSpaceOnUse" gradientTransform="translate(43.975 15.2201) rotate(34.279) scale(0.679736 1.48368)">
<stop offset="0.549892" stop-color="#F4BBC8" stop-opacity="0"/>
<stop offset="1" stop-color="#F4BBC8"/>
</radialGradient>
<radialGradient id="paint23_radial_363_1211" cx="0" cy="0" r="1" gradientUnits="userSpaceOnUse" gradientTransform="translate(75.6629 6.62477) rotate(87.8389) scale(14.0637)">
<stop stop-color="#FFF478"/>
<stop offset="0.474827" stop-color="#FFB02E"/>
<stop offset="1" stop-color="#F70A8D"/>
</radialGradient>
<radialGradient id="paint24_radial_363_1211" cx="0" cy="0" r="1" gradientUnits="userSpaceOnUse" gradientTransform="translate(75.6629 6.62477) rotate(86.8779) scale(14.6058 14.6058)">
<stop stop-color="#FFF478"/>
<stop offset="0.474827" stop-color="#FFB02E"/>
<stop offset="1" stop-color="#F70A8D"/>
</radialGradient>
<radialGradient id="paint25_radial_363_1211" cx="0" cy="0" r="1" gradientUnits="userSpaceOnUse" gradientTransform="translate(74.0719 10.0719) rotate(56.3099) scale(6.69247 8.57179)">
<stop offset="0.787821" stop-color="#F59639" stop-opacity="0"/>
<stop offset="0.972509" stop-color="#FF7DCE"/>
</radialGradient>
<radialGradient id="paint26_radial_363_1211" cx="0" cy="0" r="1" gradientUnits="userSpaceOnUse" gradientTransform="translate(75 9.93934) rotate(90) scale(15.3796)">
<stop offset="0.314853" stop-opacity="0"/>
<stop offset="1"/>
</radialGradient>
<radialGradient id="paint27_radial_363_1211" cx="0" cy="0" r="1" gradientUnits="userSpaceOnUse" gradientTransform="translate(75.2651 11.2652) rotate(32.692) scale(10.5551)">
<stop offset="0.507903" stop-color="#7D6133" stop-opacity="0"/>
<stop offset="1" stop-color="#715B32"/>
</radialGradient>
<radialGradient id="paint28_radial_363_1211" cx="0" cy="0" r="1" gradientUnits="userSpaceOnUse" gradientTransform="translate(75.2651 11) rotate(10.7131) scale(4.99256 3.61887)">
<stop stop-color="#FFB849"/>
<stop offset="1" stop-color="#FFB847" stop-opacity="0"/>
</radialGradient>
<radialGradient id="paint29_radial_363_1211" cx="0" cy="0" r="1" gradientUnits="userSpaceOnUse" gradientTransform="translate(76.7235 10.3371) rotate(-35.1342) scale(4.37722)">
<stop stop-color="#FFA64B"/>
<stop offset="0.900412" stop-color="#FFAE46" stop-opacity="0"/>
</radialGradient>
<radialGradient id="paint30_radial_363_1211" cx="0" cy="0" r="1" gradientUnits="userSpaceOnUse" gradientTransform="translate(75.1326 10.3371) rotate(-1.02916) scale(22.1448 22.1448)">
<stop offset="0.185425" stop-opacity="0"/>
<stop offset="1" stop-opacity="0.4"/>
</radialGradient>
<radialGradient id="paint31_radial_363_1211" cx="0" cy="0" r="1" gradientUnits="userSpaceOnUse" gradientTransform="translate(71.3457 10.6437) rotate(65.2249) scale(2.84744 3.7216)">
<stop stop-color="#9F5E0F"/>
<stop offset="0.889024" stop-color="#9F5E0F" stop-opacity="0"/>
</radialGradient>
<radialGradient id="paint32_radial_363_1211" cx="0" cy="0" r="1" gradientUnits="userSpaceOnUse" gradientTransform="translate(71.3458 10.6437) rotate(65.2249) scale(2.84744 3.72161)">
<stop stop-color="#9F5E0F"/>
<stop offset="0.889024" stop-color="#9F5E0F" stop-opacity="0"/>
</radialGradient>
<linearGradient id="paint33_linear_363_1211" x1="73.2262" y1="12.1016" x2="71.1256" y2="11.3683" gradientUnits="userSpaceOnUse">
<stop offset="0.24955" stop-color="#482641"/>
<stop offset="0.406361" stop-color="#503A4A"/>
<stop offset="0.511203" stop-color="#482641"/>
</linearGradient>
<linearGradient id="paint34_linear_363_1211" x1="71.8174" y1="11.6043" x2="71.2084" y2="9.7275" gradientUnits="userSpaceOnUse">
<stop offset="0.24955" stop-color="#482641"/>
<stop offset="0.406361" stop-color="#503A4A"/>
<stop offset="0.511203" stop-color="#482641"/>
</linearGradient>
<radialGradient id="paint35_radial_363_1211" cx="0" cy="0" r="1" gradientUnits="userSpaceOnUse" gradientTransform="translate(77.7219 7.97968) rotate(179.005) scale(5.00989 6.54791)">
<stop stop-color="#E9830A"/>
<stop offset="0.801655" stop-color="#F08B13" stop-opacity="0"/>
</radialGradient>
<radialGradient id="paint36_radial_363_1211" cx="0" cy="0" r="1" gradientUnits="userSpaceOnUse" gradientTransform="translate(77.722 7.97966) rotate(179.005) scale(5.00989 6.54791)">
<stop stop-color="#E9830A"/>
<stop offset="0.801655" stop-color="#F08B13" stop-opacity="0"/>
</radialGradient>
<linearGradient id="paint37_linear_363_1211" x1="76.0973" y1="9.23039" x2="75.364" y2="7.12973" gradientUnits="userSpaceOnUse">
<stop offset="0.24955" stop-color="#482641"/>
<stop offset="0.406361" stop-color="#503A4A"/>
<stop offset="0.511203" stop-color="#482641"/>
</linearGradient>
<linearGradient id="paint38_linear_363_1211" x1="75.6002" y1="7.82168" x2="73.7233" y2="7.21264" gradientUnits="userSpaceOnUse">
<stop offset="0.24955" stop-color="#482641"/>
<stop offset="0.406361" stop-color="#503A4A"/>
<stop offset="0.511203" stop-color="#482641"/>
</linearGradient>
<radialGradient id="paint39_radial_363_1211" cx="0" cy="0" r="1" gradientUnits="userSpaceOnUse" gradientTransform="translate(78.9375 15.125) rotate(-135) scale(6.36397 12.7279)">
<stop offset="0.050964" stop-color="#F70A8D"/>
<stop offset="1" stop-color="#89029C"/>
</radialGradient>
<linearGradient id="paint40_linear_363_1211" x1="75" y1="11" x2="75.3978" y2="11.3978" gradientUnits="userSpaceOnUse">
<stop stop-color="#ECCDFF"/>
<stop offset="1" stop-color="white"/>
</linearGradient>
<radialGradient id="paint41_radial_363_1211" cx="0" cy="0" r="1" gradientUnits="userSpaceOnUse" gradientTransform="translate(72.7459 15.11) rotate(-77.0054) scale(1.76887 1.14823)">
<stop stop-color="#6D4534"/>
<stop offset="1" stop-color="#FF822D" stop-opacity="0"/>
</radialGradient>
<radialGradient id="paint42_radial_363_1211" cx="0" cy="0" r="1" gradientUnits="userSpaceOnUse" gradientTransform="translate(77.6516 8.61347) rotate(-11.3099) scale(2.02812 1.31651)">
<stop stop-color="#6D4534"/>
<stop offset="1" stop-color="#FF822D" stop-opacity="0"/>
</radialGradient>
<radialGradient id="paint43_radial_363_1211" cx="0" cy="0" r="1" gradientUnits="userSpaceOnUse" gradientTransform="translate(72.6134 12.8562) rotate(102.529) scale(2.4447 1.11305)">
<stop stop-color="#508FFF"/>
<stop offset="1" stop-color="#3D5BF1"/>
</radialGradient>
<radialGradient id="paint44_radial_363_1211" cx="0" cy="0" r="1" gradientUnits="userSpaceOnUse" gradientTransform="translate(77.9168 7.81803) rotate(4.3987) scale(1.72866 0.787046)">
<stop stop-color="#5092FF"/>
<stop offset="1" stop-color="#3F5FFF"/>
</radialGradient>
<linearGradient id="paint45_linear_363_1211" x1="107.141" y1="10.5682" x2="107.141" y2="11.318" gradientUnits="userSpaceOnUse">
<stop stop-color="#72C8F9"/>
<stop offset="1" stop-color="#73AEF2" stop-opacity="0"/>
</linearGradient>
<linearGradient id="paint46_linear_363_1211" x1="108.197" y1="14.4174" x2="106.98" y2="14.1841" gradientUnits="userSpaceOnUse">
<stop stop-color="#73D2FF"/>
<stop offset="1" stop-color="#73AEF2" stop-opacity="0"/>
</linearGradient>
<linearGradient id="paint47_linear_363_1211" x1="105.189" y1="10.625" x2="103.713" y2="8.70313" gradientUnits="userSpaceOnUse">
<stop offset="0.329505" stop-color="#2E97D8"/>
<stop offset="1" stop-color="#1C82CA"/>
</linearGradient>
<linearGradient id="paint48_linear_363_1211" x1="101.932" y1="11.0234" x2="103.361" y2="9.92187" gradientUnits="userSpaceOnUse">
<stop stop-color="#2E8BDB"/>
<stop offset="1" stop-color="#2E8BDB" stop-opacity="0"/>
</linearGradient>
<linearGradient id="paint49_linear_363_1211" x1="106.089" y1="9.67666" x2="105.764" y2="9.46839" gradientUnits="userSpaceOnUse">
<stop stop-color="#32B3EA"/>
<stop offset="1" stop-color="#32B3EA" stop-opacity="0"/>
</linearGradient>
<radialGradient id="paint50_radial_363_1211" cx="0" cy="0" r="1" gradientUnits="userSpaceOnUse" gradientTransform="translate(107.744 9.6875) rotate(-5.73208) scale(3.1093 4.20236)">
<stop stop-color="#20D5FC"/>
<stop offset="1" stop-color="#20BFF7"/>
</radialGradient>
<linearGradient id="paint51_linear_363_1211" x1="108.342" y1="10.0976" x2="108.576" y2="9.94531" gradientUnits="userSpaceOnUse">
<stop offset="0.17" stop-color="#20D0F6"/>
<stop offset="1" stop-color="#20D0F6" stop-opacity="0"/>
</linearGradient>
<linearGradient id="paint52_linear_363_1211" x1="104.382" y1="10.7656" x2="106.996" y2="16.1503" gradientUnits="userSpaceOnUse">
<stop offset="0.379031" stop-color="#296BCC"/>
<stop offset="1" stop-color="#3E7DE1"/>
</linearGradient>
<linearGradient id="paint53_linear_363_1211" x1="104.382" y1="10.7656" x2="104.382" y2="10.918" gradientUnits="userSpaceOnUse">
<stop stop-color="#2D75D2"/>
<stop offset="1" stop-color="#2D75D2" stop-opacity="0"/>
</linearGradient>
<radialGradient id="paint54_radial_363_1211" cx="0" cy="0" r="1" gradientUnits="userSpaceOnUse" gradientTransform="translate(107.463 16.0859) rotate(-60.9647) scale(4.42309 2.31906)">
<stop stop-color="#42A2EC"/>
<stop offset="1" stop-color="#3294E4"/>
</radialGradient>
<linearGradient id="paint55_linear_363_1211" x1="107.586" y1="14.3369" x2="107.773" y2="14.4101" gradientUnits="userSpaceOnUse">
<stop stop-color="#368FE1"/>
<stop offset="1" stop-color="#368FE1" stop-opacity="0"/>
</linearGradient>
<linearGradient id="paint56_linear_363_1211" x1="109.61" y1="10.6484" x2="109.61" y2="11.0351" gradientUnits="userSpaceOnUse">
<stop stop-color="#309EE9"/>
<stop offset="1" stop-color="#309EE9" stop-opacity="0"/>
</linearGradient>
<linearGradient id="paint57_linear_363_1211" x1="108.377" y1="9.24215" x2="105.154" y2="11.4921" gradientUnits="userSpaceOnUse">
<stop stop-color="#6CE8FE"/>
<stop offset="0.642405" stop-color="#68CAEA"/>
</linearGradient>
<linearGradient id="paint58_linear_363_1211" x1="12.2203" y1="7.48982" x2="8.44686" y2="15.4351" gradientUnits="userSpaceOnUse">
<stop stop-color="#FFCA44"/>
<stop offset="1" stop-color="#F8A528"/>
</linearGradient>
<radialGradient id="paint59_radial_363_1211" cx="0" cy="0" r="1" gradientUnits="userSpaceOnUse" gradientTransform="translate(12.665 6.81659) rotate(141.116) scale(1.88087 5.55128)">
<stop stop-color="#FFE34C"/>
<stop offset="1" stop-color="#FFE34C" stop-opacity="0"/>
</radialGradient>
<radialGradient id="paint60_radial_363_1211" cx="0" cy="0" r="1" gradientUnits="userSpaceOnUse" gradientTransform="translate(9.24094 10.9154) rotate(125.191) scale(2.78633 2.01846)">
<stop stop-color="#FFCA2E"/>
<stop offset="1" stop-color="#FFCA2E" stop-opacity="0"/>
</radialGradient>
<radialGradient id="paint61_radial_363_1211" cx="0" cy="0" r="1" gradientUnits="userSpaceOnUse" gradientTransform="translate(12.2636 11.7992) rotate(146.743) scale(6.07151 10.6254)">
<stop offset="0.681103" stop-color="#E18E3F" stop-opacity="0"/>
<stop offset="1" stop-color="#E18E3F"/>
</radialGradient>
<linearGradient id="paint62_linear_363_1211" x1="10.3215" y1="14.5857" x2="10.3215" y2="16.4985" gradientUnits="userSpaceOnUse">
<stop stop-color="#D8796F" stop-opacity="0"/>
<stop offset="1" stop-color="#D8796F"/>
</linearGradient>
<linearGradient id="paint63_linear_363_1211" x1="12.5375" y1="9.55884" x2="12.5375" y2="14.5418" gradientUnits="userSpaceOnUse">
<stop stop-color="#D1730B"/>
<stop offset="1" stop-color="#E27D47"/>
</linearGradient>
<linearGradient id="paint64_linear_363_1211" x1="14.7339" y1="10.1152" x2="11.3426" y2="10.1152" gradientUnits="userSpaceOnUse">
<stop stop-color="#FFDB44"/>
<stop offset="1" stop-color="#F9A928"/>
</linearGradient>
<radialGradient id="paint65_radial_363_1211" cx="0" cy="0" r="1" gradientUnits="userSpaceOnUse" gradientTransform="translate(11.8942 11.0826) rotate(-142.633) scale(0.870413 0.58263)">
<stop stop-color="#D98320"/>
<stop offset="1" stop-color="#D98320" stop-opacity="0"/>
</radialGradient>
<linearGradient id="paint66_linear_363_1211" x1="14.33" y1="15.0677" x2="11.2983" y2="15.0677" gradientUnits="userSpaceOnUse">
<stop stop-color="#FFDB44"/>
<stop offset="1" stop-color="#F9A928"/>
</linearGradient>
<radialGradient id="paint67_radial_363_1211" cx="0" cy="0" r="1" gradientUnits="userSpaceOnUse" gradientTransform="translate(11.9714 16.1296) scale(2.74255 1.04333)">
<stop stop-color="#F29545"/>
<stop offset="1" stop-color="#F29545" stop-opacity="0"/>
</radialGradient>
<radialGradient id="paint68_radial_363_1211" cx="0" cy="0" r="1" gradientUnits="userSpaceOnUse" gradientTransform="translate(11.8398 14.3786) scale(2.78134 0.74661)">
<stop stop-color="#DA810B"/>
<stop offset="1" stop-color="#FFB610" stop-opacity="0"/>
</radialGradient>
<linearGradient id="paint69_linear_363_1211" x1="12.9599" y1="16.3485" x2="12.9599" y2="15.6615" gradientUnits="userSpaceOnUse">
<stop stop-color="#DC7C6A"/>
<stop offset="1" stop-color="#DC7C6A" stop-opacity="0"/>
</linearGradient>
<radialGradient id="paint70_radial_363_1211" cx="0" cy="0" r="1" gradientUnits="userSpaceOnUse" gradientTransform="translate(10.8587 15.0677) scale(2.10121 3.15851)">
<stop stop-color="#E38811"/>
<stop offset="1" stop-color="#E38811" stop-opacity="0"/>
</radialGradient>
<linearGradient id="paint71_linear_363_1211" x1="14.2674" y1="14.7888" x2="12.0966" y2="14.7888" gradientUnits="userSpaceOnUse">
<stop stop-color="#FFF166"/>
<stop offset="1" stop-color="#FFF166" stop-opacity="0"/>
</linearGradient>
<linearGradient id="paint72_linear_363_1211" x1="14.7744" y1="13.5188" x2="11.2984" y2="13.5188" gradientUnits="userSpaceOnUse">
<stop stop-color="#FFDB44"/>
<stop offset="1" stop-color="#F9A928"/>
</linearGradient>
<radialGradient id="paint73_radial_363_1211" cx="0" cy="0" r="1" gradientUnits="userSpaceOnUse" gradientTransform="translate(12.0702 14.637) scale(3.14444 1.09863)">
<stop stop-color="#F29545"/>
<stop offset="1" stop-color="#F29545" stop-opacity="0"/>
</radialGradient>
<radialGradient id="paint74_radial_363_1211" cx="0" cy="0" r="1" gradientUnits="userSpaceOnUse" gradientTransform="translate(11.9193 12.7932) scale(3.18891 0.78618)">
<stop stop-color="#DA810B"/>
<stop offset="1" stop-color="#FFB610" stop-opacity="0"/>
</radialGradient>
<linearGradient id="paint75_linear_363_1211" x1="14.6027" y1="13.3375" x2="11.8844" y2="13.3375" gradientUnits="userSpaceOnUse">
<stop stop-color="#FFF166"/>
<stop offset="1" stop-color="#FFF166" stop-opacity="0"/>
</linearGradient>
<linearGradient id="paint76_linear_363_1211" x1="15.0908" y1="11.8256" x2="11.2982" y2="11.8256" gradientUnits="userSpaceOnUse">
<stop stop-color="#FFDB44"/>
<stop offset="1" stop-color="#F9A928"/>
</linearGradient>
<radialGradient id="paint77_radial_363_1211" cx="0" cy="0" r="1" gradientUnits="userSpaceOnUse" gradientTransform="translate(12.0825 12.6548) scale(2.06275 0.918176)">
<stop stop-color="#F29545"/>
<stop offset="1" stop-color="#F29545" stop-opacity="0"/>
</radialGradient>
<radialGradient id="paint78_radial_363_1211" cx="0" cy="0" r="1" gradientUnits="userSpaceOnUse" gradientTransform="translate(9.70135 6.81659) rotate(90) scale(2.38505 0.885536)">
<stop stop-color="#F3A52A"/>
<stop offset="1" stop-color="#F3A52A" stop-opacity="0"/>
</radialGradient>
<radialGradient id="paint79_radial_363_1211" cx="0" cy="0" r="1" gradientUnits="userSpaceOnUse" gradientTransform="translate(9.00472 8.38694) rotate(42.9975) scale(1.19463 1.80767)">
<stop stop-color="#CDA25E"/>
<stop offset="1" stop-color="#CDA25E" stop-opacity="0"/>
</radialGradient>
<radialGradient id="paint80_radial_363_1211" cx="0" cy="0" r="1" gradientUnits="userSpaceOnUse" gradientTransform="translate(10.2445 6.66896) rotate(-168.366) scale(0.614797 1.34193)">
<stop offset="0.549892" stop-color="#CCB28B" stop-opacity="0"/>
<stop offset="1" stop-color="#CCB28B"/>
</radialGradient>
<linearGradient id="paint81_linear_363_1211" x1="14.2524" y1="9.58033" x2="11.7722" y2="9.58033" gradientUnits="userSpaceOnUse">
<stop stop-color="#FFF166"/>
<stop offset="1" stop-color="#FFF166" stop-opacity="0"/>
</linearGradient>
<linearGradient id="paint82_linear_363_1211" x1="14.594" y1="11.2586" x2="11.6949" y2="11.2586" gradientUnits="userSpaceOnUse">
<stop stop-color="#FFF166"/>
<stop offset="1" stop-color="#FFF166" stop-opacity="0"/>
</linearGradient>
<linearGradient id="paint83_linear_363_1211" x1="11.7" y1="6.98942" x2="10.5419" y2="6.98942" gradientUnits="userSpaceOnUse">
<stop stop-color="#FFF166"/>
<stop offset="1" stop-color="#FFF166" stop-opacity="0"/>
</linearGradient>
<clipPath id="clip0_363_1211">
<rect width="12" height="12" fill="white" transform="translate(37 5)"/>
</clipPath>
<clipPath id="clip1_363_1211">
<rect width="12" height="12" fill="white" transform="translate(69 5)"/>
</clipPath>
<clipPath id="clip2_363_1211">
<rect width="12" height="12" fill="white" transform="translate(5 5)"/>
</clipPath>
</defs>
</svg>
