<svg width="14" height="14" viewBox="0 0 14 14" fill="none" xmlns="http://www.w3.org/2000/svg">
<path d="M10.2463 8.33933C10.1348 8.33933 10.0228 8.29676 9.93764 8.21217C9.76673 8.04184 9.76559 7.76476 9.9365 7.59326L11.0839 6.43942C11.5553 5.97392 11.8125 5.34976 11.8125 4.6801C11.8125 4.0116 11.5541 3.38508 11.0851 2.9155C10.1144 1.94425 8.53356 1.94425 7.56173 2.9155L6.41443 4.06876C6.2441 4.24026 5.96699 4.24084 5.79549 4.0705C5.62458 3.90017 5.62331 3.62309 5.79364 3.45159L6.94222 2.29775C8.25647 0.984087 10.3915 0.98525 11.7035 2.29717C12.3381 2.93125 12.6875 3.77768 12.6875 4.6801C12.6875 5.58543 12.3376 6.4301 11.7023 7.05893L10.5571 8.21043C10.4708 8.29676 10.3588 8.33933 10.2463 8.33933ZM7.05786 11.7034L8.21214 10.5554C8.38306 10.3851 8.38434 10.108 8.21342 9.93651C8.04309 9.76501 7.76598 9.76501 7.59448 9.93476L6.44006 11.0839C5.4694 12.0552 3.88854 12.0552 2.91671 11.0839C1.94546 10.1127 1.94547 8.53243 2.91614 7.56176L4.07056 6.41375C4.24147 6.24342 4.24261 5.96633 4.0717 5.79483C3.90136 5.62333 3.62426 5.62334 3.45276 5.79309L2.29834 6.94226C0.98584 8.25476 0.98584 10.3898 2.29834 11.7023C2.95517 12.3585 3.81737 12.6863 4.67896 12.6863C5.54054 12.6863 6.40219 12.3591 7.05786 11.7034ZM5.55922 9.05917L9.07432 5.54459C9.24524 5.37368 9.24524 5.09659 9.07432 4.92567C8.90399 4.75534 8.62703 4.75417 8.45553 4.92567L4.94029 8.44025C4.76937 8.61117 4.76937 8.88826 4.94029 9.05917C5.02545 9.14434 5.13747 9.18751 5.24947 9.18751C5.36147 9.18751 5.47406 9.14492 5.55922 9.05917Z" fill="#495568"/>
</svg>
