<svg width="40" height="40" viewBox="0 0 40 40" fill="none" xmlns="http://www.w3.org/2000/svg">
<path d="M34.8784 5.12172C33.7084 3.95172 32.0515 3.49172 30.4415 3.89339L8.58685 9.35675C5.67352 10.0851 3.72998 12.5917 3.75164 15.595C3.77331 18.5984 5.75019 21.0767 8.67352 21.765L16.4168 23.5867L18.2385 31.3284C18.9269 34.2517 21.405 36.2284 24.4084 36.2501C24.4234 36.2501 24.4402 36.2501 24.4552 36.2501C27.4368 36.2501 29.92 34.3117 30.645 31.4151L36.1084 9.56004C36.5084 7.95171 36.05 6.29339 34.8784 5.12172ZM33.6817 8.9534L28.2182 30.8084C27.6699 32.9967 25.9018 33.7634 24.4234 33.7501C23.0151 33.7401 21.1885 32.9501 20.6718 30.7567L18.8318 22.9384L25.8834 15.8851C26.3717 15.3967 26.3717 14.6051 25.8834 14.1167C25.3951 13.6284 24.6033 13.6284 24.115 14.1167L17.0618 21.17L9.24318 19.33C7.04818 18.8134 6.25839 16.9851 6.24839 15.5767C6.23839 14.1684 7.00321 12.3284 9.18988 11.7817L31.0449 6.31836C31.2233 6.27336 31.4033 6.25173 31.58 6.25173C32.1467 6.25173 32.6933 6.47506 33.1083 6.89006C33.6533 7.43339 33.8683 8.20507 33.6817 8.9534Z" fill="white"/>
</svg>
